<?xml version="1.0" encoding="UTF-8"?>
<!DOCTYPE svg PUBLIC "-//W3C//DTD SVG 1.1//EN" "http://www.w3.org/Graphics/SVG/1.1/DTD/svg11.dtd">
<!-- Creator: CorelDRAW X8 -->
<svg xmlns="http://www.w3.org/2000/svg" xml:space="preserve" width="84.6666mm" height="84.6666mm" version="1.1" style="shape-rendering:geometricPrecision; text-rendering:geometricPrecision; image-rendering:optimizeQuality; fill-rule:evenodd; clip-rule:evenodd"
viewBox="0 0 8467 8467"
 xmlns:xlink="http://www.w3.org/1999/xlink">
 <defs>
  <style type="text/css">
   <![CDATA[
    .str0 {stroke:black;stroke-width:203.2}
    .fil1 {fill:#A79ECD}
    .fil0 {fill:black}
    .fil2 {fill:white}
   ]]>
  </style>
 </defs>
 <g id="Camada_x0020_1">
  <metadata id="CorelCorpID_0Corel-Layer"/>
  <path class="fil0 str0" d="M505 2156l0 4240c0,148 36,376 88,514 18,48 35,98 55,145l65 136c72,152 190,281 306,400 10,11 13,15 23,25 107,119 247,207 386,282 174,94 430,188 624,188l4546 0c274,0 616,-164 845,-329 127,-91 303,-272 390,-402 16,-24 21,-36 37,-59 86,-120 170,-330 212,-476 8,-30 14,-40 18,-72 14,-84 35,-168 35,-257l0 -4421c0,-114 -33,-251 -57,-344 -146,-554 -595,-999 -1132,-1179 -124,-41 -308,-81 -434,-81l-4364 0c-286,0 -572,111 -794,237 -28,16 -34,26 -62,43 -149,91 -173,123 -288,238 -112,112 -94,90 -189,221l-117 198c-13,24 -24,42 -37,69l-85 229c-39,138 -71,298 -71,455z"/>
  <path class="fil1" d="M5699 4655c395,233 660,663 660,1155 0,739 -600,1339 -1339,1339l-2607 0 1870 -1879c44,-40 23,-22 95,-32 33,-4 57,-6 105,-8 212,-8 538,-114 725,-214 175,-93 349,-215 491,-361z"/>
  <path class="fil2" d="M4283 5270c44,-40 23,-22 95,-32 33,-4 57,-6 105,-8 212,-8 538,-114 725,-214 240,-127 478,-311 635,-533 58,-83 136,-202 178,-287l129 -335c21,-101 79,-284 79,-386 0,-429 8,-281 -70,-671 -28,-143 -145,-360 -220,-486 -145,-242 -320,-434 -558,-581 -269,-167 -494,-271 -829,-318 -291,-41 -1744,-19 -2142,-19l0 384 953 1 2 197 955 0 -2 186 -1908 0 0 384 953 1 2 198 953 0 2 185 -1908 1 2 384 950 2 7 196 949 1 0 185 -1905 0 -5 385 955 1 3 185 952 0 -5 198 -1905 -8 3 2683 1870 -1879z"/>
 </g>
</svg>
