<?xml version="1.0" encoding="UTF-8"?>
<!DOCTYPE svg PUBLIC "-//W3C//DTD SVG 1.1//EN" "http://www.w3.org/Graphics/SVG/1.1/DTD/svg11.dtd">
<!-- Creator: CorelDRAW X8 -->
<svg xmlns="http://www.w3.org/2000/svg" xml:space="preserve" width="84.6666mm" height="84.6666mm" version="1.1" style="shape-rendering:geometricPrecision; text-rendering:geometricPrecision; image-rendering:optimizeQuality; fill-rule:evenodd; clip-rule:evenodd"
viewBox="0 0 8467 8467"
 xmlns:xlink="http://www.w3.org/1999/xlink">
 <defs>
  <style type="text/css">
   <![CDATA[
    .str0 {stroke:black;stroke-width:203.2}
    .fil1 {fill:#A79ECD}
    .fil2 {fill:black}
    .fil0 {fill:white}
   ]]>
  </style>
 </defs>
 <g id="Camada_x0020_1">
  <metadata id="CorelCorpID_0Corel-Layer"/>
  <path class="fil0 str0" d="M528 2215l0 4240c0,148 36,376 88,514 18,48 35,98 55,145l65 136c72,153 189,282 306,401 10,10 13,14 22,25 107,118 248,206 387,281 174,94 430,188 624,188l4545 0c274,0 616,-164 846,-329 127,-90 302,-272 390,-402 16,-24 21,-36 37,-59 86,-120 170,-330 211,-476 9,-30 14,-40 19,-71 14,-85 35,-168 35,-258l0 -4421c0,-113 -33,-251 -57,-344 -146,-554 -595,-998 -1132,-1179 -125,-41 -308,-81 -435,-81l-4363 0c-286,0 -572,111 -795,237 -28,16 -34,26 -62,43 -148,91 -172,124 -287,238 -112,112 -94,90 -189,221l-118 198c-12,24 -24,42 -36,69l-85 230c-39,137 -71,297 -71,454z"/>
  <path class="fil1" d="M5722 4714c395,233 660,663 660,1155 0,740 -600,1339 -1340,1339l-2606 0 1870 -1879c44,-40 23,-22 94,-32 33,-4 57,-6 105,-8 212,-8 539,-114 726,-213 175,-93 349,-216 491,-362z"/>
  <path class="fil2" d="M4306 5329c44,-40 23,-22 94,-32 33,-4 57,-6 105,-8 212,-8 539,-114 726,-213 240,-128 478,-311 635,-534 58,-82 136,-201 177,-287l130 -335c21,-101 79,-284 79,-386 0,-429 7,-281 -70,-671 -28,-143 -145,-360 -220,-485 -145,-243 -320,-434 -558,-582 -270,-167 -494,-271 -829,-318 -291,-40 -1744,-19 -2142,-19l0 384 953 1 2 197 955 0 -3 186 -1907 0 0 384 953 1 2 198 953 0 1 186 -1908 0 3 384 950 2 7 197 948 0 0 185 -1905 0 -4 385 954 1 3 185 953 0 -5 198 -1905 -8 3 2683 1870 -1879z"/>
 </g>
</svg>
