<?xml version="1.0" encoding="UTF-8"?>
<!DOCTYPE svg PUBLIC "-//W3C//DTD SVG 1.1//EN" "http://www.w3.org/Graphics/SVG/1.1/DTD/svg11.dtd">
<!-- Creator: CorelDRAW X8 -->
<svg xmlns="http://www.w3.org/2000/svg" xml:space="preserve" width="210mm" height="297mm" version="1.1" style="shape-rendering:geometricPrecision; text-rendering:geometricPrecision; image-rendering:optimizeQuality; fill-rule:evenodd; clip-rule:evenodd"
viewBox="0 0 21000 29700"
 xmlns:xlink="http://www.w3.org/1999/xlink">
 <defs>
  <style type="text/css">
   <![CDATA[
    .str0 {stroke:black;stroke-width:8.47}
    .fil0 {fill:black}
    .fil1 {fill:black;fill-rule:nonzero}
   ]]>
  </style>
 </defs>
 <g id="Camada_x0020_1">
  <metadata id="CorelCorpID_0Corel-Layer"/>
  <path class="fil0 str0" d="M14134 13849c1107,653 1850,1858 1850,3236 0,2073 -1681,3754 -3754,3754l-7305 0 5240 -5267c124,-111 65,-61 266,-89 92,-12 160,-17 294,-22 594,-22 1509,-319 2034,-599 489,-261 976,-604 1375,-1013z"/>
  <path class="fil0 str0" d="M10165 15572c124,-111 65,-61 266,-89 92,-12 160,-17 294,-22 594,-22 1509,-319 2034,-599 671,-358 1339,-872 1778,-1495 164,-231 383,-565 499,-804l362 -940c60,-282 221,-794 221,-1081 0,-1203 22,-787 -195,-1880 -80,-402 -407,-1009 -617,-1361 -406,-679 -896,-1216 -1564,-1630 -755,-468 -1385,-759 -2323,-890 -815,-114 -4888,-55 -6002,-55l0 1076 2670 3 5 553 2676 1 -6 520 -5345 1 0 1076 2671 2 4 554 2672 0 3 521 -5347 1 8 1077 2662 5 20 551 2657 1 0 520 -5339 -1 -11 1078 2674 4 8 517 2670 0 -15 556 -5337 -22 7 7519 5240 -5267z"/>
  <path class="fil1" d="M5100 22198l0 606 -157 0 0 -1350 283 0c99,0 172,5 218,16 47,10 88,28 122,51 43,31 77,73 101,127 24,53 37,112 37,177 0,66 -13,125 -37,178 -24,54 -58,96 -101,127 -34,24 -75,42 -121,52 -47,11 -120,16 -219,16l-45 0 -81 0zm0 -145l81 0c137,0 230,-17 278,-49 47,-32 71,-88 71,-169 0,-86 -25,-146 -73,-181 -49,-35 -141,-53 -276,-53l-81 0 0 452zm760 -499c0,-29 10,-54 31,-75 21,-20 46,-31 75,-31 29,0 54,11 75,32 20,21 30,46 30,75 0,29 -10,54 -30,74 -20,21 -45,31 -75,31 -29,0 -54,-10 -75,-31 -21,-20 -31,-45 -31,-75zm34 1250l0 -844 145 0 0 844 -145 0zm1095 -414c0,-95 -26,-172 -78,-230 -52,-58 -119,-87 -203,-87 -87,0 -154,27 -203,81 -48,53 -73,128 -73,224 0,101 25,180 74,235 48,56 118,83 208,83 86,0 153,-26 202,-80 49,-54 73,-129 73,-226zm140 -430l0 844 -140 0 0 -153c-33,61 -77,108 -129,140 -53,33 -112,49 -177,49 -121,0 -219,-42 -292,-125 -74,-84 -112,-194 -112,-331 0,-139 36,-249 108,-331 72,-82 168,-123 289,-123 70,0 132,16 184,47 52,32 94,80 125,142l0 -159 144 0zm288 844l0 -844 142 0 0 130c36,-54 80,-94 131,-121 51,-26 110,-39 177,-39 100,0 177,26 233,79 56,53 84,127 84,221l0 574 -147 0 0 -497c0,-86 -18,-149 -54,-190 -36,-42 -92,-63 -167,-63 -43,0 -82,8 -117,24 -35,16 -65,38 -88,67 -18,22 -31,47 -38,75 -8,29 -12,78 -12,148l0 436 -144 0zm1137 -419c0,89 30,164 90,226 59,62 132,93 216,93 85,0 156,-31 216,-93 58,-62 88,-137 88,-226 0,-89 -30,-165 -88,-226 -60,-62 -131,-93 -216,-93 -85,0 -157,31 -217,93 -59,61 -89,137 -89,226zm-153 -1c0,-62 12,-120 34,-175 23,-55 56,-104 100,-147 44,-43 93,-76 149,-99 55,-22 114,-33 177,-33 61,0 119,11 174,34 55,23 105,56 150,100 44,42 77,90 100,146 22,55 34,113 34,174 0,62 -12,120 -34,174 -23,55 -56,103 -100,145 -45,45 -95,78 -151,102 -55,23 -113,35 -173,35 -63,0 -121,-12 -177,-35 -56,-23 -105,-56 -149,-99 -44,-44 -77,-93 -100,-148 -22,-54 -34,-112 -34,-174z"/>
  <path class="fil1" d="M9766 22024l84 0c104,0 178,-14 221,-43 43,-28 65,-76 65,-144 0,-74 -20,-125 -60,-155 -40,-30 -115,-45 -226,-45l-84 0 0 387zm0 597l75 0c77,0 135,-3 173,-9 38,-7 68,-17 90,-33 27,-17 48,-42 63,-72 15,-30 22,-63 22,-99 0,-43 -9,-81 -27,-113 -18,-32 -43,-57 -76,-74 -21,-11 -45,-18 -72,-23 -27,-5 -62,-8 -107,-8l-66 0 -75 0 0 431zm-215 183l0 -1350 340 0c97,0 169,5 215,16 47,10 86,28 119,51 42,31 74,72 97,121 23,50 35,105 35,165 0,72 -17,133 -50,181 -33,48 -81,82 -145,101 79,12 141,48 186,107 45,59 67,134 67,225 0,54 -9,106 -28,155 -19,49 -46,91 -81,126 -37,37 -83,63 -138,79 -54,15 -146,23 -275,23l-342 0zm1758 -434c0,-82 -27,-150 -79,-207 -52,-56 -116,-84 -191,-84 -75,0 -139,28 -192,84 -52,57 -78,125 -78,207 0,81 26,150 78,206 53,56 117,84 192,84 74,0 138,-28 191,-84 52,-56 79,-125 79,-206zm-752 -2c0,-64 12,-125 37,-181 24,-57 59,-108 104,-152 45,-44 97,-77 155,-100 59,-24 120,-35 184,-35 65,0 127,11 186,35 58,23 110,57 156,103 46,45 81,95 105,152 24,56 36,116 36,178 0,64 -12,125 -36,181 -23,57 -58,107 -103,151 -48,46 -101,81 -160,104 -58,24 -120,36 -184,36 -64,0 -125,-12 -183,-36 -58,-23 -110,-58 -156,-102 -46,-46 -81,-97 -105,-154 -24,-56 -36,-116 -36,-180zm1861 2c0,-82 -26,-150 -78,-207 -52,-56 -116,-84 -192,-84 -75,0 -138,28 -191,84 -53,57 -79,125 -79,207 0,81 26,150 79,206 53,56 116,84 191,84 75,0 139,-28 192,-84 52,-56 78,-125 78,-206zm-751 -2c0,-64 12,-125 36,-181 25,-57 60,-108 105,-152 45,-44 96,-77 155,-100 58,-24 120,-35 183,-35 66,0 128,11 186,35 58,23 110,57 157,103 46,45 81,95 105,152 24,56 36,116 36,178 0,64 -12,125 -36,181 -23,57 -58,107 -104,151 -48,46 -101,81 -159,104 -58,24 -120,36 -185,36 -63,0 -124,-12 -182,-36 -59,-23 -111,-58 -156,-102 -46,-46 -81,-97 -105,-154 -24,-56 -36,-116 -36,-180zm1074 277l166 -90c12,43 35,77 68,99 33,23 76,35 128,35 45,0 80,-11 106,-31 25,-21 38,-49 38,-85 0,-47 -46,-88 -137,-122 -30,-11 -54,-20 -70,-27 -94,-39 -159,-78 -196,-118 -38,-40 -56,-89 -56,-146 0,-78 30,-141 91,-190 62,-48 143,-72 243,-72 68,0 126,12 174,37 48,25 83,60 105,107l-141 97c-11,-27 -29,-49 -55,-66 -26,-16 -56,-24 -91,-24 -38,0 -68,9 -91,27 -23,18 -35,42 -35,72 0,46 52,87 155,125 32,11 57,21 75,28 81,32 138,68 173,109 35,40 52,90 52,150 0,88 -32,156 -95,205 -63,50 -150,75 -262,75 -85,0 -156,-16 -212,-48 -57,-32 -101,-81 -133,-147zm951 159l0 -699 -153 0 0 -175 153 0 0 -331 200 0 0 331 153 0 0 175 -153 0 0 699 -200 0zm1367 -408l-699 0c6,82 30,146 73,192 44,46 102,69 175,69 64,0 118,-14 161,-41 43,-27 80,-71 112,-131l169 94c-50,88 -110,153 -183,196 -72,43 -158,65 -255,65 -140,0 -252,-43 -335,-128 -83,-86 -124,-200 -124,-342 0,-138 43,-250 128,-338 86,-88 196,-132 331,-132 141,0 250,40 329,120 79,81 118,194 118,338l0 38zm-208 -134c-8,-63 -31,-110 -71,-143 -40,-33 -95,-49 -164,-49 -66,0 -119,16 -159,47 -40,32 -68,81 -84,145l478 0zm616 -192c22,-58 50,-101 85,-129 36,-28 80,-41 132,-41 28,0 56,3 84,10 27,6 54,16 80,29l-72 170c-17,-12 -36,-21 -55,-27 -21,-6 -43,-9 -67,-9 -67,0 -115,27 -144,80 -28,53 -43,142 -43,268l0 383 -200 0 0 -876 200 0 0 142z"/>
 </g>
</svg>
