<?xml version="1.0" encoding="UTF-8"?>
<!DOCTYPE svg PUBLIC "-//W3C//DTD SVG 1.1//EN" "http://www.w3.org/Graphics/SVG/1.1/DTD/svg11.dtd">
<!-- Creator: CorelDRAW X8 -->
<svg xmlns="http://www.w3.org/2000/svg" xml:space="preserve" width="297mm" height="100mm" version="1.1" style="shape-rendering:geometricPrecision; text-rendering:geometricPrecision; image-rendering:optimizeQuality; fill-rule:evenodd; clip-rule:evenodd"
viewBox="0 0 29700 10000"
 xmlns:xlink="http://www.w3.org/1999/xlink">
 <defs>
  <style type="text/css">
   <![CDATA[
    .str0 {stroke:white;stroke-width:8.47}
    .fil0 {fill:white}
    .fil1 {fill:white;fill-rule:nonzero}
   ]]>
  </style>
 </defs>
 <g id="Camada_x0020_1">
  <metadata id="CorelCorpID_0Corel-Layer"/>
  <path class="fil0 str0" d="M6005 5362c507,299 848,852 848,1484 0,951 -771,1722 -1722,1722l-3351 0 2404 -2416c57,-51 30,-28 122,-41 42,-6 73,-8 135,-10 272,-10 692,-147 933,-275 224,-119 448,-277 631,-464z"/>
  <path class="fil0 str0" d="M4184 6152c57,-51 30,-28 122,-41 42,-6 73,-8 135,-10 272,-10 692,-147 933,-275 308,-164 614,-400 816,-686 75,-106 175,-259 228,-369l166 -431c28,-129 102,-364 102,-496 0,-551 10,-361 -90,-862 -36,-184 -186,-463 -283,-624 -186,-312 -411,-558 -717,-748 -346,-215 -635,-348 -1065,-408 -374,-53 -2243,-25 -2754,-25l0 493 1225 2 2 253 1228 1 -3 238 -2452 0 0 494 1225 1 2 254 1226 1 1 238 -2452 1 3 494 1221 2 9 253 1219 0 0 239 -2449 -1 -5 495 1227 2 4 237 1224 0 -6 255 -2449 -10 3 3449 2404 -2416z"/>
  <path class="fil1 str0" d="M7794 7463l0 1105 -286 0 0 -2461 516 0c181,0 314,10 399,29 85,19 159,50 222,94 78,55 140,132 184,230 44,97 66,205 66,324 0,119 -22,227 -66,325 -44,97 -106,174 -184,230 -63,44 -137,76 -221,95 -85,19 -218,29 -400,29l-82 0 -148 0zm0 -265l148 0c251,0 420,-29 507,-88 86,-59 130,-162 130,-308 0,-157 -45,-267 -134,-331 -89,-63 -257,-96 -503,-96l-148 0 0 823zm1387 -910c0,-52 18,-97 56,-135 38,-37 83,-56 137,-56 53,0 98,19 136,57 37,38 56,84 56,138 0,52 -18,98 -56,134 -36,38 -82,56 -136,56 -54,0 -99,-18 -137,-56 -38,-36 -56,-83 -56,-138zm61 2280l0 -1539 265 0 0 1539 -265 0zm1997 -754c0,-174 -47,-314 -142,-419 -95,-106 -218,-159 -371,-159 -157,0 -281,49 -369,146 -89,98 -133,234 -133,409 0,185 45,329 134,429 88,101 215,152 379,152 156,0 280,-49 369,-147 88,-98 133,-235 133,-411zm255 -785l0 1539 -255 0 0 -279c-61,112 -140,197 -236,256 -96,59 -203,88 -322,88 -220,0 -399,-76 -533,-228 -135,-152 -203,-352 -203,-602 0,-253 66,-455 197,-604 131,-150 306,-225 526,-225 128,0 240,29 335,87 95,58 171,144 229,259l0 -291 262 0zm526 1539l0 -1539 258 0 0 238c66,-99 146,-172 239,-220 93,-49 200,-73 322,-73 182,0 323,48 425,145 102,96 153,230 153,402l0 1047 -268 0 0 -906c0,-156 -33,-271 -98,-347 -66,-76 -167,-114 -304,-114 -78,0 -150,15 -214,43 -65,29 -118,69 -161,122 -32,40 -56,87 -69,138 -15,51 -22,141 -22,269l0 795 -261 0zm2072 -764c0,162 55,300 163,412 109,113 241,169 395,169 154,0 285,-56 393,-169 107,-112 161,-250 161,-412 0,-163 -54,-300 -161,-413 -108,-113 -239,-169 -393,-169 -155,0 -287,56 -395,169 -109,113 -163,250 -163,413zm-278 -1c0,-113 20,-220 61,-320 42,-100 103,-190 182,-268 80,-79 170,-139 271,-179 101,-41 208,-62 323,-62 112,0 218,21 318,62 101,42 191,102 273,182 80,78 140,166 182,266 42,101 62,207 62,319 0,112 -20,218 -62,317 -42,99 -102,187 -182,264 -82,81 -173,142 -274,185 -102,43 -207,64 -317,64 -114,0 -221,-21 -322,-63 -102,-42 -192,-102 -272,-181 -79,-81 -140,-170 -182,-269 -41,-98 -61,-204 -61,-317z"/>
  <path class="fil1 str0" d="M16301 7146l153 0c190,0 325,-25 404,-78 78,-52 118,-140 118,-262 0,-135 -36,-229 -109,-284 -73,-54 -211,-81 -413,-81l-153 0 0 705zm0 1088l138 0c140,0 245,-6 314,-17 70,-11 124,-31 165,-59 49,-32 87,-76 114,-131 27,-55 40,-115 40,-181 0,-78 -16,-147 -49,-205 -32,-59 -79,-104 -139,-136 -38,-20 -81,-33 -130,-43 -49,-8 -114,-13 -195,-13l-120 0 -138 0 0 785zm-392 334l0 -2461 621 0c177,0 308,10 392,29 85,19 157,50 216,94 76,56 136,129 177,220 42,91 64,191 64,301 0,132 -31,241 -91,329 -61,88 -149,150 -264,184 143,22 256,88 338,196 82,108 123,244 123,409 0,99 -17,194 -52,284 -34,90 -84,166 -147,228 -68,69 -151,117 -251,145 -100,28 -267,42 -502,42l-624 0zm3205 -792c0,-148 -48,-273 -143,-376 -95,-103 -212,-154 -349,-154 -137,0 -253,51 -349,154 -96,103 -144,228 -144,376 0,148 48,274 144,376 96,103 212,154 349,154 136,0 252,-51 348,-154 96,-102 144,-228 144,-376zm-1370 -3c0,-117 22,-227 66,-330 45,-104 108,-196 191,-277 82,-79 176,-140 283,-183 106,-43 218,-64 334,-64 120,0 233,21 339,64 106,43 201,105 285,188 84,82 148,174 192,278 43,102 65,211 65,324 0,117 -22,228 -65,331 -43,103 -106,194 -189,274 -87,84 -184,147 -291,190 -106,43 -218,65 -336,65 -115,0 -226,-22 -333,-65 -106,-43 -201,-105 -284,-187 -84,-83 -148,-176 -192,-279 -43,-103 -65,-213 -65,-329zm3393 3c0,-148 -48,-273 -143,-376 -95,-103 -212,-154 -349,-154 -137,0 -253,51 -349,154 -96,103 -144,228 -144,376 0,148 48,274 144,376 96,103 212,154 349,154 136,0 253,-51 348,-154 96,-102 144,-228 144,-376zm-1370 -3c0,-117 22,-227 67,-330 44,-104 107,-196 190,-277 82,-79 176,-140 283,-183 106,-43 218,-64 334,-64 120,0 233,21 339,64 106,43 201,105 285,188 84,82 148,174 192,278 43,102 65,211 65,324 0,117 -22,228 -65,331 -43,103 -106,194 -189,274 -87,84 -184,147 -291,190 -106,43 -218,65 -336,65 -115,0 -226,-22 -332,-65 -107,-43 -202,-105 -285,-187 -84,-83 -147,-176 -192,-279 -43,-103 -65,-213 -65,-329zm1958 506l303 -166c22,80 63,141 124,182 60,42 138,63 233,63 82,0 146,-19 193,-56 46,-38 69,-89 69,-155 0,-86 -82,-160 -248,-222 -56,-20 -99,-36 -129,-50 -171,-71 -290,-142 -358,-215 -67,-73 -101,-161 -101,-265 0,-143 55,-258 167,-347 112,-88 259,-132 443,-132 123,0 228,23 316,68 88,45 152,110 192,194l-258 178c-19,-50 -53,-90 -100,-120 -48,-30 -103,-45 -165,-45 -70,0 -125,17 -167,49 -42,34 -63,78 -63,133 0,83 94,158 281,227 60,21 106,39 138,52 147,58 252,124 315,197 63,73 95,165 95,275 0,159 -58,284 -173,374 -115,90 -274,135 -477,135 -156,0 -286,-29 -388,-87 -103,-59 -184,-147 -242,-267zm1734 289l0 -1274 -279 0 0 -320 279 0 0 -602 365 0 0 602 278 0 0 320 -278 0 0 1274 -365 0zm2492 -744l-1273 0c9,150 53,266 133,350 79,83 185,125 318,125 117,0 215,-24 293,-74 79,-49 147,-129 206,-239l306 172c-90,160 -200,279 -333,358 -132,78 -287,117 -465,117 -256,0 -459,-78 -610,-233 -151,-156 -227,-364 -227,-624 0,-250 78,-455 235,-616 156,-160 356,-241 602,-241 256,0 457,74 600,220 143,147 215,353 215,617l0 68zm-378 -244c-15,-114 -58,-201 -131,-261 -73,-60 -173,-90 -299,-90 -120,0 -216,29 -289,87 -72,59 -124,146 -153,264l872 0zm1122 -351c40,-106 91,-184 156,-234 64,-51 144,-76 240,-76 51,0 102,7 152,19 50,12 99,30 147,53l-131 310c-32,-22 -65,-39 -102,-49 -36,-11 -77,-16 -122,-16 -121,0 -208,48 -261,145 -53,97 -79,260 -79,488l0 699 -365 0 0 -1597 365 0 0 258z"/>
 </g>
</svg>
