<?xml version="1.0" encoding="UTF-8"?>
<!DOCTYPE svg PUBLIC "-//W3C//DTD SVG 1.1//EN" "http://www.w3.org/Graphics/SVG/1.1/DTD/svg11.dtd">
<!-- Creator: CorelDRAW X8 -->
<svg xmlns="http://www.w3.org/2000/svg" xml:space="preserve" width="210mm" height="297mm" version="1.1" style="shape-rendering:geometricPrecision; text-rendering:geometricPrecision; image-rendering:optimizeQuality; fill-rule:evenodd; clip-rule:evenodd"
viewBox="0 0 21000 29700"
 xmlns:xlink="http://www.w3.org/1999/xlink">
 <defs>
  <style type="text/css">
   <![CDATA[
    .str0 {stroke:black;stroke-width:8.47}
    .fil0 {fill:black}
   ]]>
  </style>
 </defs>
 <g id="Camada_x0020_1">
  <metadata id="CorelCorpID_0Corel-Layer"/>
  <path class="fil0 str0" d="M14134 13849c1107,653 1850,1858 1850,3236 0,2073 -1681,3754 -3754,3754l-7305 0 5240 -5267c124,-111 65,-61 266,-89 92,-12 160,-17 294,-22 594,-22 1509,-319 2034,-599 489,-261 976,-604 1375,-1013z"/>
  <path class="fil0 str0" d="M10165 15572c124,-111 65,-61 266,-89 92,-12 160,-17 294,-22 594,-22 1509,-319 2034,-599 671,-358 1339,-872 1778,-1495 164,-231 383,-565 499,-804l362 -940c60,-282 221,-794 221,-1081 0,-1203 22,-787 -195,-1880 -80,-402 -407,-1009 -617,-1361 -406,-679 -896,-1216 -1564,-1630 -755,-468 -1385,-759 -2323,-890 -815,-114 -4888,-55 -6002,-55l0 1076 2670 3 5 553 2676 1 -6 520 -5345 1 0 1076 2671 2 4 554 2672 0 3 521 -5347 1 8 1077 2662 5 20 551 2657 1 0 520 -5339 -1 -11 1078 2674 4 8 517 2670 0 -15 556 -5337 -22 7 7519 5240 -5267z"/>
 </g>
</svg>
