/* XPM */
static char * pianobooster_xpm[] = {
"32 32 180 2",
"  	c #000000",
". 	c #000400",
"+ 	c #080408",
"@ 	c #000029",
"# 	c #00006A",
"$ 	c #00004A",
"% 	c #000052",
"& 	c #00005A",
"* 	c #0000CD",
"= 	c #4A444A",
"- 	c #313031",
"; 	c #000031",
"> 	c #000062",
", 	c #0000C5",
"' 	c #080C08",
") 	c #100C10",
"! 	c #00046A",
"~ 	c #000452",
"{ 	c #0004CD",
"] 	c #312C31",
"^ 	c #201C20",
"/ 	c #0000D5",
"( 	c #105910",
"_ 	c #085508",
": 	c #317D31",
"< 	c #105908",
"[ 	c #085520",
"} 	c #10594A",
"| 	c #085531",
"1 	c #105939",
"2 	c #085539",
"3 	c #105973",
"4 	c #085931",
"5 	c #085D08",
"6 	c #001800",
"7 	c #080008",
"8 	c #393839",
"9 	c #312831",
"0 	c #000073",
"a 	c #080808",
"b 	c #4A484A",
"c 	c #393439",
"d 	c #080052",
"e 	c #000041",
"f 	c #39147B",
"g 	c #5220CD",
"h 	c #52208B",
"i 	c #5A2083",
"j 	c #18085A",
"k 	c #414441",
"l 	c #313431",
"m 	c #31106A",
"n 	c #9438AC",
"o 	c #CD4CCD",
"p 	c #E655D5",
"q 	c #DE50D5",
"r 	c #E655DE",
"s 	c #AC40BD",
"t 	c #180C62",
"u 	c #181018",
"v 	c #4A147B",
"w 	c #E64CE6",
"x 	c #DE48DE",
"y 	c #D544D5",
"z 	c #EE50E6",
"A 	c #621C8B",
"B 	c #106110",
"C 	c #106510",
"D 	c #105D10",
"E 	c #106108",
"F 	c #085518",
"G 	c #085529",
"H 	c #085D31",
"I 	c #106139",
"J 	c #4A755A",
"K 	c #738573",
"L 	c #738173",
"M 	c #6A816A",
"N 	c #316D4A",
"O 	c #419D6A",
"P 	c #101410",
"Q 	c #101010",
"R 	c #293052",
"S 	c #6A7DD5",
"T 	c #839DFF",
"U 	c #8BA1FF",
"V 	c #94A5FF",
"W 	c #6271D5",
"X 	c #08085A",
"Y 	c #B440BD",
"Z 	c #DE4CD5",
"` 	c #D54CD5",
" .	c #CD48CD",
"..	c #CD4CD5",
"+.	c #391473",
"@.	c #414041",
"#.	c #292C29",
"$.	c #414C83",
"%.	c #8BAAFF",
"&.	c #8399FF",
"*.	c #7B99FF",
"=.	c #8BA5FF",
"-.	c #20287B",
";.	c #10045A",
">.	c #DE50DE",
",.	c #D550CD",
"'.	c #311473",
").	c #080400",
"!.	c #101018",
"~.	c #7B8DEE",
"{.	c #20247B",
"].	c #521C8B",
"^.	c #521CCD",
"/.	c #000408",
"(.	c #414C5A",
"_.	c #394473",
":.	c #202841",
"<.	c #83A1FF",
"[.	c #5A6DCD",
"}.	c #080C10",
"|.	c #7B95F6",
"1.	c #5261A4",
"2.	c #101420",
"3.	c #7B91F6",
"4.	c #8B9DFF",
"5.	c #7389EE",
"6.	c #101462",
"7.	c #0804CD",
"8.	c #5A69BD",
"9.	c #8395FF",
"0.	c #5A5D7B",
"a.	c #62699C",
"b.	c #100C20",
"c.	c #101429",
"d.	c #7B89EE",
"e.	c #6271DE",
"f.	c #100C62",
"g.	c #106918",
"h.	c #4AA57B",
"i.	c #4AAA83",
"j.	c #39914A",
"k.	c #41995A",
"l.	c #4AAA8B",
"m.	c #419D73",
"n.	c #086108",
"o.	c #207939",
"p.	c #39956A",
"q.	c #39916A",
"r.	c #085D29",
"s.	c #106131",
"t.	c #106539",
"u.	c #106531",
"v.	c #086131",
"w.	c #10656A",
"x.	c #086139",
"y.	c #39486A",
"z.	c #0008BD",
"A.	c #182039",
"B.	c #626994",
"C.	c #7379B4",
"D.	c #6271C5",
"E.	c #7B91E6",
"F.	c #7385DE",
"G.	c #5A65AC",
"H.	c #182031",
"I.	c #313452",
"J.	c #414039",
"K.	c #414841",
"L.	c #086508",
"M.	c #106910",
"N.	c #187518",
"O.	c #187118",
"P.	c #086520",
"Q.	c #106541",
"R.	c #086531",
"S.	c #000462",
"T.	c #0004C5",
"U.	c #202020",
"V.	c #181818",
"W.	c #202420",
"          . +                 @ # $ % $ % $ % $ % & * & % $ % $ ",
"        . = -                 ; # $ $ % $ % $ % $ > , & $ % $ % ",
".   .   . ' )   .   .   .   . @ ! $ ~ $ ~ $ ~ $ ~ & { & ~ $ ~ $ ",
"          ] ^                 ; # $ % % $ % % % $ > / & $ % % % ",
"( _ ( _ ( : : _ ( _ ( _ ( _ < [ } | 1 | 1 | 1 | 1 2 3 2 1 | 1 4 ",
"5 5 5 5 5 : : 5 5 5 5 5 5 5 5 5 } | | | | | | | | | 3 | | | | | ",
"6       7 8 9   6             @ 0 $ % % % $ % % % & / & % $ % % ",
"          a .                 ; # $ $ % $ % $ % $ > , & $ % $ % ",
"        + b c                 @ 0 $ % $ % $ % $ d & * % $ $ % $ ",
"          +                   @ # $ $ % $ % $ $ e f g h i j $ % ",
".   .   + k l   .   .   .   . @ ! $ ~ $ ~ $ % m n o p q r s t $ ",
"          u a                 ; # $ % % $ $ v w x x y x y z A $ ",
"B 5 B 5 B C C 5 B 5 B 5 B D E F 2 2 G H I H J K L L K M K L N H ",
"5 5 5 5 5 5 5 5 5 5 5 5 5 5 5 F O O 2 | | | J K K K K K K K | | ",
"          P Q           7 R S T U U V W X d Y Z `  .` Z ..+.% % ",
"        . @.#.          $.%.T &.*.&.*.=.-.e ;.Y q >.,.Y '.$ $ % ",
"          )..         !.~.T T &.T &.T &.{.$ $ j i ].^.% $ $ % $ ",
"        /.b (.$._.    :.U &.&.&.&.&.<.[.e % $ $ e & , & $ % $ % ",
".   }._.~.|.&.=.V 1.  2.3.T 4.&.T U 5.6.$ $ ~ $ ~ & 7.& ~ $ ~ $ ",
"    8.V 9.0.a.4.&.4.b.  c.d.4.4.9.e.f.$ $ % $ % $ > * & $ % $ % ",
"C g.h.i.i.j.k.i.l.m.g.n.5 o.O p.q.r.s.s.t.s.u.v.u.I w.x.u.s.u.v.",
"5 y.h.h.h.j.j.h.h.h.5 5 5 5 5 5 5 | | | | | | | | | z.| | | | | ",
"  A.&.4.&.B.C.=.D./.          @ # $ % $ % $ % $ % & * & % $ % $ ",
"    :.&.<.E.F.G..             ; # $ $ % $ % $ % $ & , & $ % $ % ",
"      H.I.J.#.                @ 0 $ % $ % $ % $ % & * & % $ % $ ",
"          +                   @ # $ $ % $ % $ % $ > , & $ % $ % ",
"        a K.c   .             @ # $ % $ % $ % $ % & * & % $ % $ ",
"          a +                 ; # $ $ % $ % $ % $ > * & $ % $ % ",
"C C C L.M.N.O.L.C C C L.C C C P.Q.u.u.R.u.u.u.R.u.t.w.R.u.u.u.u.",
"5 5 5 5 5 5 5 5 5 5 5 5 5 5 5 5 S.| | | | | | | | | T.| | | | | ",
"        + U.V.                @ 0 $ % $ % $ % $ % & * & % $ % $ ",
"          8 W.                ; # $ $ % $ % $ % $ & , & $ % $ % "};
