/* XPM */
static char * pianobooster_xpm[] = {
"32 32 320 2",
"  	c #000000",
". 	c #2C2D2C",
"+ 	c #040404",
"@ 	c #000052",
"# 	c #000049",
"$ 	c #00004C",
"% 	c #000050",
"& 	c #0000B8",
"* 	c #00004B",
"= 	c #000048",
"- 	c #00003F",
"; 	c #313031",
"> 	c #1B1B1B",
", 	c #010101",
"' 	c #343634",
") 	c #040504",
"! 	c #3A3A3A",
"~ 	c #212021",
"{ 	c #222322",
"] 	c #030303",
"^ 	c #262526",
"/ 	c #151415",
"( 	c #191B19",
"_ 	c #020202",
": 	c #000051",
"< 	c #00004A",
"[ 	c #1D1C1D",
"} 	c #101010",
"| 	c #282A28",
"1 	c #030403",
"2 	c #2E2D2E",
"3 	c #191919",
"4 	c #3A3D3A",
"5 	c #050505",
"6 	c #424142",
"7 	c #242424",
"8 	c #2E312E",
"9 	c #0000B7",
"0 	c #343434",
"a 	c #1D1D1D",
"b 	c #063006",
"c 	c #073007",
"d 	c #113911",
"e 	c #073107",
"f 	c #063004",
"g 	c #063043",
"h 	c #06303D",
"i 	c #06303F",
"j 	c #063042",
"k 	c #06308E",
"l 	c #06303C",
"m 	c #063035",
"n 	c #063005",
"o 	c #063106",
"p 	c #123A12",
"q 	c #0D350D",
"r 	c #031503",
"s 	c #031603",
"t 	c #1E301E",
"u 	c #041704",
"v 	c #031500",
"w 	c #03154B",
"x 	c #031544",
"y 	c #031546",
"z 	c #031549",
"A 	c #0315A5",
"B 	c #021446",
"C 	c #14B922",
"D 	c #05333C",
"E 	c #03153A",
"F 	c #031501",
"G 	c #011401",
"H 	c #213221",
"I 	c #142514",
"J 	c #021502",
"K 	c #393C39",
"L 	c #12B323",
"M 	c #032241",
"N 	c #404040",
"O 	c #383A38",
"P 	c #12B324",
"Q 	c #032141",
"R 	c #3F3E3F",
"S 	c #232223",
"T 	c #211E21",
"U 	c #030203",
"V 	c #000053",
"W 	c #00004D",
"X 	c #0000BC",
"Y 	c #00004E",
"Z 	c #13B325",
"` 	c #031E42",
" .	c #000040",
"..	c #262126",
"+.	c #151015",
"@.	c #083F08",
"#.	c #084008",
"$.	c #275F27",
"%.	c #0A410A",
"&.	c #083F06",
"*.	c #083F3D",
"=.	c #083F38",
"-.	c #083F3A",
";.	c #083F3C",
">.	c #083F7E",
",.	c #083F39",
"'.	c #083D3A",
").	c #15B220",
"!.	c #0A5533",
"~.	c #083F31",
"{.	c #073E07",
"].	c #2A612A",
"^.	c #1B511B",
"/.	c #303030",
"(.	c #0000BA",
"_.	c #031F42",
":.	c #373437",
"<.	c #1F1C1F",
"[.	c #3B3D3B",
"}.	c #00004F",
"|.	c #0000B6",
"1.	c #000046",
"2.	c #252425",
"3.	c #282928",
"4.	c #110755",
"5.	c #6F2A92",
"6.	c #A73EC9",
"7.	c #A93FB6",
"8.	c #33136B",
"9.	c #13B324",
"0.	c #2C2C2C",
"a.	c #042204",
"b.	c #132D13",
"c.	c #052305",
"d.	c #042203",
"e.	c #021F44",
"f.	c #021F3E",
"g.	c #042243",
"h.	c #03223F",
"i.	c #9E46AA",
"j.	c #CD4ECC",
"k.	c #C94CCA",
"l.	c #C94CC9",
"m.	c #804295",
"n.	c #032140",
"o.	c #14B322",
"p.	c #073A3A",
"q.	c #042238",
"r.	c #142B14",
"s.	c #0C230C",
"t.	c #041F04",
"u.	c #042304",
"v.	c #010F01",
"w.	c #020F02",
"x.	c #212F21",
"y.	c #031103",
"z.	c #010F02",
"A.	c #020E02",
"B.	c #0C1B18",
"C.	c #435CA1",
"D.	c #4660A4",
"E.	c #12215C",
"F.	c #101350",
"G.	c #BD55BD",
"H.	c #BD54BD",
"I.	c #BC54BC",
"J.	c #C156C0",
"K.	c #372268",
"L.	c #010C48",
"M.	c #13B323",
"N.	c #052D3D",
"O.	c #010F3C",
"P.	c #010F00",
"Q.	c #011201",
"R.	c #2D822D",
"S.	c #229A22",
"T.	c #0C6C0C",
"U.	c #363836",
"V.	c #434E81",
"W.	c #7F99F7",
"X.	c #809AFE",
"Y.	c #8099FD",
"Z.	c #788FE9",
"`.	c #04044A",
" +	c #7E2E9C",
".+	c #D850D4",
"++	c #CF4DC9",
"@+	c #562083",
"#+	c #03004B",
"$+	c #000A00",
"%+	c #15D815",
"&+	c #29D629",
"*+	c #1AE61A",
"=+	c #19ED19",
"-+	c #064206",
";+	c #010102",
">+	c #2C2F2E",
",+	c #272F4D",
"'+	c #0D101B",
")+	c #090B12",
"!+	c #8099F7",
"~+	c #8099FE",
"{+	c #8099FF",
"]+	c #819AFE",
"^+	c #5D6FCD",
"/+	c #01014B",
"(+	c #05014D",
"_+	c #1D0B5F",
":+	c #1809B7",
"<+	c #13B424",
"[+	c #0E840E",
"}+	c #18EA18",
"|+	c #1BE41B",
"1+	c #1AE51A",
"2+	c #1AEF1A",
"3+	c #042404",
"4+	c #181C31",
"5+	c #6476C0",
"6+	c #8097F6",
"7+	c #869FFE",
"8+	c #7186DA",
"9+	c #07070E",
"0+	c #5966AD",
"a+	c #829AFC",
"b+	c #8098FE",
"c+	c #687ADA",
"d+	c #090B56",
"e+	c #0000B9",
"f+	c #032041",
"g+	c #074007",
"h+	c #18DD18",
"i+	c #22DE22",
"j+	c #25D025",
"k+	c #095909",
"l+	c #0B560B",
"m+	c #0A550A",
"n+	c #368A61",
"o+	c #839CFD",
"p+	c #859DFF",
"q+	c #5998A7",
"r+	c #0D580F",
"s+	c #0A5408",
"t+	c #308255",
"u+	c #2D7E63",
"v+	c #08522F",
"w+	c #0C5634",
"x+	c #0B5634",
"y+	c #0B5635",
"z+	c #0B5669",
"A+	c #0B5633",
"B+	c #0B5534",
"C+	c #15B21F",
"D+	c #0D682D",
"E+	c #0B562B",
"F+	c #0B560A",
"G+	c #0B550B",
"H+	c #0F7D0F",
"I+	c #288A28",
"J+	c #195E19",
"K+	c #000100",
"L+	c #5B6DB6",
"M+	c #8199FB",
"N+	c #88A3FD",
"O+	c #2C3559",
"P+	c #00014A",
"Q+	c #00014B",
"R+	c #000150",
"S+	c #0001B7",
"T+	c #00014C",
"U+	c #00013F",
"V+	c #070910",
"W+	c #435185",
"X+	c #515B76",
"Y+	c #232A43",
"Z+	c #323132",
"`+	c #1C1B1C",
" @	c #1B1C1B",
".@	c #1E1D1E",
"+@	c #010C01",
"@@	c #0B140B",
"#@	c #020D02",
"$@	c #010C4D",
"%@	c #010C47",
"&@	c #010C49",
"*@	c #010CAF",
"=@	c #010C4A",
"-@	c #13B423",
";@	c #04293E",
">@	c #010C3D",
",@	c #0C140C",
"'@	c #070F07",
")@	c #021002",
"!@	c #1A281A",
"~@	c #021001",
"{@	c #02104B",
"]@	c #021045",
"^@	c #021047",
"/@	c #0210A9",
"(@	c #020F47",
"_@	c #021247",
":@	c #021044",
"<@	c #02103B",
"[@	c #010E01",
"}@	c #1D2A1D",
"|@	c #111E11",
"1@	c #2B2C2B",
"2@	c #302F30",
"3@	c #1B1A1B",
"4@	c #1E201E",
"5@	c #020302",
"6@	c #131313",
"7@	c #0A0A0A",
"8@	c #0C0B0C",
"9@	c #060606",
"0@	c #121312",
"a@	c #141414",
"b@	c #0B0B0B",
"c@	c #262826",
"d@	c #2B2A2B",
"e@	c #181818",
"          . +         @ # $ $ $ % & * $ $ $ = -         ; >     ",
"        , ' )         @ # $ $ $ % & * $ $ $ = -         ! ~     ",
"          { ]         @ # $ $ $ % & * $ $ $ = -         ^ /     ",
"          ( _         : < $ $ $ % & * $ $ $ = -         [ }     ",
"          | 1         : # $ $ $ % & * $ $ $ = -         2 3     ",
"        , 4 5         @ # $ $ $ % & * $ $ $ = -         6 7     ",
"        , 8 +         : # $ $ $ % 9 * $ $ $ = -         0 a     ",
"b b b b c d e b b b f g h i i i j k i i i i l m n b b o p q b b ",
"r r r r s t u r r r v w x y y y z A y y B C D E F r r G H I J r ",
"        , K 5         @ # $ $ $ % & * $ $ L M -         N 7     ",
"        , O 5         @ # $ $ $ % & * $ $ P Q -         R S     ",
"          T U         V * W W W @ X W W Y Z `  .        ..+.    ",
"@.@.@.@.#.$.%.@.@.@.&.*.=.-.-.-.;.>.,.-.'.).!.~.&.@.@.{.].^.@.@.",
"          /.+         @ < $ $ $ : (.$ $ W L _.-         :.<.    ",
"        , [.5         @ # $ $ $ }.|.1.* $ L Q -         6 2.    ",
"          3.]         : # $ $ 4.5.6.7.8.* 9.M -         0.3     ",
"a.a.a.a.a.b.c.a.a.a.d.e.f.g.h.i.j.k.l.m.n.o.p.q.a.a.a.a.r.s.t.u.",
"v.v.v.v.w.x.y.v.z.A.B.C.D.E.F.G.H.I.J.K.L.M.N.O.P.v.v.Q.R.S.T.v.",
"        , U.5     V.W.X.Y.Z.`. +.+++@+#+$ P Q -     $+%+&+*+=+-+",
"        ;+>+,+'+)+!+~+{+]+^+/+(+_+:+< $ $ <+Q -     [+}+|+1+2+3+",
"      4+5+6+7+8+9+0+a+b+c+d+$ $ : e+$ $ W <+f+ .    g+h+i+j+k+  ",
"l+l+m+n+o+p+o+q+r+s+t+u+v+w+x+x+y+z+A+x+B+C+D+E+F+l+G+H+I+J+G+l+",
"K+K+  L+M+p+N+O+  K+  % P+Q+Q+Q+R+S+T+Q+$ L Q U+K+K+K+  ; > K+K+",
"      V+W+X+Y+        : # $ $ $ % & * $ $ 9.Q -         Z+`+    ",
"           @_         : # $ $ $ % & * $ $ <+Q -         .@}     ",
"+@+@+@+@+@@@#@+@+@+@+@$@%@&@&@&@$@*@&@&@=@-@;@>@+@+@+@+@,@'@+@+@",
")@)@)@)@)@!@y.)@)@)@~@{@]@^@^@^@{@/@^@^@(@_@:@<@~@)@)@[@}@|@w.)@",
"          1@+         @ < $ $ $ % & * $ $ $ = -         2@3@    ",
"          4@5@        : # $ $ $ % & * $ $ $ = -         S 6@    ",
"          7@K+        : < $ $ $ % & * $ $ $ = -         8@9@    ",
"          0@,         : < $ $ $ % & * $ $ $ = -         a@b@    ",
"          c@]         : # $ $ $ % & * $ $ $ = -         d@e@    "};
