<?xml version="1.0" standalone="no"?>
<!DOCTYPE svg PUBLIC "-//W3C//DTD SVG 1.1//EN"
	"http://www.w3.org/Graphics/SVG/1.1/DTD/svg11.dtd">
<svg xmlns="http://www.w3.org/2000/svg" version="1.1"
	xmlns:xlink="http://www.w3.org/1999/xlink"
	xml:space='preserve' color="black"
	width="7.38in" height="3.84in" viewBox="0 0 531 276">
<title>BoosterMusic/FrereJacques.abc (1) tune 1</title>
<!-- Creator: abcm2ps-7.8.9 -->
<!-- CreationDate: May 18, 2018 14:42 -->
<!-- CommandLine: -g -s 0.9 -c BoosterMusic/FrereJacques.abc -O PianoBoosterMusic/BoosterMusic/FrereJacques.svg -->
<g transform="scale(0.900)" stroke-width="0.70" font-family="Times" font-size="20.00">
<text x="295.11" y="21.67" text-anchor="middle">Frere Jacques/Brother John</text>
<path stroke="currentColor" fill="none"
	d="M11.11 156.01v-82.00"/>
<defs>
<g id="rdots" fill="currentColor">
	<circle cx="0" cy="-9" r="1.2"/>
	<circle cx="0" cy="-15" r="1.2"/>
</g>
</defs>
<use x="70.11" y="98.01" xlink:href="#rdots"/>
<path stroke="currentColor" fill="none"
	d="M66.11 98.01v-24.00"/>
<path stroke="currentColor" fill="none" stroke-width="3"
	d="M61.61 98.01v-24.00"/>
<use x="70.11" y="156.01" xlink:href="#rdots"/>
<path stroke="currentColor" fill="none"
	d="M66.11 156.01v-58.00"/>
<path stroke="currentColor" fill="none" stroke-width="3"
	d="M61.61 156.01v-58.00"/>
<path stroke="currentColor" fill="none"
	d="M209.01 98.01v-24.00"/>
<path stroke="currentColor" fill="none"
	d="M209.01 156.01v-58.00"/>
<path stroke="currentColor" fill="none"
	d="M347.01 98.01v-24.00"/>
<path stroke="currentColor" fill="none"
	d="M347.01 156.01v-58.00"/>
<path stroke="currentColor" fill="none"
	d="M463.01 98.01v-24.00"/>
<path stroke="currentColor" fill="none"
	d="M463.01 156.01v-58.00"/>
<path stroke="currentColor" fill="none"
	d="M579.11 98.01v-24.00"/>
<path stroke="currentColor" fill="none"
	d="M579.11 156.01v-58.00"/>
<path stroke="currentColor" fill="none"
	d="M11.11 98.01h568.00m-568.00 -6h568.00m-568.00 -6h568.00m-568.00 -6h568.00m-568.00 -6h568.00"/>
<path stroke="currentColor" fill="none"
	d="M11.11 156.01h568.00m-568.00 -6h568.00m-568.00 -6h568.00m-568.00 -6h568.00m-568.00 -6h568.00"/>
<defs>
<path id="utclef" fill="currentColor" d="m-50 -90
	c-72 -41 -72 -158 52 -188
	c150 -10 220 188 90 256
	c-114 52 -275 0 -293 -136
	c-15 -181 93 -229 220 -334
	c88 -87 79 -133 62 -210
	c-51 33 -94 105 -89 186
	c17 267 36 374 49 574
	c6 96 -19 134 -77 135
	c-80 1 -126 -93 -61 -133
	c85 -41 133 101 31 105
	c23 17 92 37 90 -92
	c-10 -223 -39 -342 -50 -617
	c0 -90 0 -162 96 -232
	c56 72 63 230 22 289
	c-74 106 -257 168 -255 316
	c9 153 148 185 252 133
	c86 -65 29 -192 -80 -176
	c-71 12 -105 67 -59 124"/>
<use id="tclef" transform="scale(0.045)"
	xlink:href="#utclef"/>
</defs>
<use x="23.11" y="98.01" xlink:href="#tclef"/>
<g font-family="serif" font-size="16" font-weight="bold" font-style="normal"
	transform="translate(41.61,98.01) scale(1.2,1)">
	<text y="-1" text-anchor="middle">4</text>
	<text y="-13" text-anchor="middle">4</text>
</g>
<defs>
<path id="hl" stroke="currentColor" d="m-6 0h12"/>
</defs>
<use x="85.11" y="104.01" xlink:href="#hl"/>
<defs>
<ellipse id="hd" rx="4.1" ry="2.9"
	transform="rotate(-20)" fill="currentColor"/>
</defs>
<use x="85.11" y="104.01" xlink:href="#hd"/>
<path d="M88.61 104.01v-20.00" stroke="currentColor" fill="none"/>
<use x="117.71" y="101.01" xlink:href="#hd"/>
<path d="M121.21 101.01v-20.00" stroke="currentColor" fill="none"/>
<use x="150.31" y="98.01" xlink:href="#hd"/>
<path d="M153.81 98.01v-20.00" stroke="currentColor" fill="none"/>
<use x="182.81" y="104.01" xlink:href="#hl"/>
<use x="182.81" y="104.01" xlink:href="#hd"/>
<path d="M186.31 104.01v-20.00" stroke="currentColor" fill="none"/>
<use x="223.01" y="104.01" xlink:href="#hl"/>
<use x="223.01" y="104.01" xlink:href="#hd"/>
<path d="M226.51 104.01v-20.00" stroke="currentColor" fill="none"/>
<use x="255.61" y="101.01" xlink:href="#hd"/>
<path d="M259.11 101.01v-20.00" stroke="currentColor" fill="none"/>
<use x="288.21" y="98.01" xlink:href="#hd"/>
<path d="M291.71 98.01v-20.00" stroke="currentColor" fill="none"/>
<use x="320.81" y="104.01" xlink:href="#hl"/>
<use x="320.81" y="104.01" xlink:href="#hd"/>
<path d="M324.31 104.01v-20.00" stroke="currentColor" fill="none"/>
<use x="361.01" y="98.01" xlink:href="#hd"/>
<path d="M364.51 98.01v-20.00" stroke="currentColor" fill="none"/>
<use x="393.61" y="95.01" xlink:href="#hd"/>
<path d="M397.11 95.01v-20.00" stroke="currentColor" fill="none"/>
<defs>
<path id="Hd" fill="currentColor" d="m3 -1.6
	c-1 -1.8 -7 1.4 -6 3.2
	c1 1.8 7 -1.4 6 -3.2
	m0.5 -0.3
	c2 3.8 -5 7.6 -7 3.8
	c-2 -3.8 5 -7.6 7 -3.8"/>
</defs>
<use x="426.21" y="92.01" xlink:href="#Hd"/>
<path d="M429.71 92.01v-20.00" stroke="currentColor" fill="none"/>
<use x="477.01" y="98.01" xlink:href="#hd"/>
<path d="M480.51 98.01v-20.00" stroke="currentColor" fill="none"/>
<use x="509.61" y="95.01" xlink:href="#hd"/>
<path d="M513.11 95.01v-20.00" stroke="currentColor" fill="none"/>
<use x="542.21" y="92.01" xlink:href="#Hd"/>
<path d="M545.71 92.01v-20.00" stroke="currentColor" fill="none"/>
<defs>
<path id="ubclef" fill="currentColor" d="m-200 -87
	c124 -35 222 -78 254 -236
	c43 -228 -167 -246 -192 -103
	c59 -80 157 22 92 78
	c-62 47 -115 -22 -106 -88
	c21 -141 270 -136 274 52
	c-1 175 -106 264 -322 297
	m357 -250
	c0 -36 51 -34 51 0
	c0 37 -51 36 -51 0
	m-2 -129
	c0 -36 51 -34 51 0
	c0 38 -51 37 -51 0"/>
<use id="bclef" transform="scale(0.045)"
	xlink:href="#ubclef"/>
</defs>
<use x="23.11" y="156.01" xlink:href="#bclef"/>
<g font-family="serif" font-size="16" font-weight="bold" font-style="normal"
	transform="translate(41.61,156.01) scale(1.2,1)">
	<text y="-1" text-anchor="middle">4</text>
	<text y="-13" text-anchor="middle">4</text>
</g>
<defs>
<path id="HD" fill="currentColor" d="m-2.7 -1.4
	c1.5 -2.8 6.9 0 5.3 2.7
	c-1.5 2.8 -6.9 0 -5.3 -2.7
	m8.3 1.4
	c0 -1.5 -2.2 -3 -5.6 -3
	c-3.4 0 -5.6 1.5 -5.6 3
	c0 1.5 2.2 3 5.6 3
	c3.4 0 5.6 -1.5 5.6 -3"/>
</defs>
<use x="86.11" y="141.01" xlink:href="#HD"/>
<use x="224.01" y="141.01" xlink:href="#HD"/>
<use x="362.01" y="147.01" xlink:href="#HD"/>
<use x="478.01" y="147.01" xlink:href="#HD"/>
<path stroke="currentColor" fill="none"
	d="M11.11 284.01v-82.00"/>
<path stroke="currentColor" fill="none"
	d="M194.71 226.01v-24.00"/>
<path stroke="currentColor" fill="none"
	d="M194.71 284.01v-58.00"/>
<path stroke="currentColor" fill="none"
	d="M354.41 226.01v-24.00"/>
<path stroke="currentColor" fill="none"
	d="M354.41 284.01v-58.00"/>
<path stroke="currentColor" fill="none"
	d="M466.61 226.01v-24.00"/>
<path stroke="currentColor" fill="none"
	d="M466.61 284.01v-58.00"/>
<path stroke="currentColor" fill="none" stroke-width="3"
	d="M577.61 226.01v-24.00"/>
<path stroke="currentColor" fill="none"
	d="M573.11 226.01v-24.00"/>
<use x="569.11" y="226.01" xlink:href="#rdots"/>
<path stroke="currentColor" fill="none" stroke-width="3"
	d="M577.61 284.01v-58.00"/>
<path stroke="currentColor" fill="none"
	d="M573.11 284.01v-58.00"/>
<use x="569.11" y="284.01" xlink:href="#rdots"/>
<path stroke="currentColor" fill="none"
	d="M11.11 226.01h568.00m-568.00 -6h568.00m-568.00 -6h568.00m-568.00 -6h568.00m-568.00 -6h568.00"/>
<path stroke="currentColor" fill="none"
	d="M11.11 284.01h568.00m-568.00 -6h568.00m-568.00 -6h568.00m-568.00 -6h568.00m-568.00 -6h568.00"/>
<use x="23.11" y="226.01" xlink:href="#tclef"/>
<path fill="currentColor"
	d="M52.31 199.01l63.80 0.00v3.20l-63.80 -0.00"/>
<use x="49.11" y="220.01" xlink:href="#hd"/>
<path d="M52.61 220.01v-20.00" stroke="currentColor" fill="none"/>
<use x="70.11" y="217.01" xlink:href="#hd"/>
<path d="M73.61 217.01v-17.00" stroke="currentColor" fill="none"/>
<use x="91.21" y="220.01" xlink:href="#hd"/>
<path d="M94.71 220.01v-20.00" stroke="currentColor" fill="none"/>
<use x="112.21" y="223.01" xlink:href="#hd"/>
<path d="M115.71 223.01v-23.00" stroke="currentColor" fill="none"/>
<use x="135.51" y="226.01" xlink:href="#hd"/>
<path d="M139.01 226.01v-20.00" stroke="currentColor" fill="none"/>
<use x="168.41" y="232.01" xlink:href="#hl"/>
<use x="168.41" y="232.01" xlink:href="#hd"/>
<path d="M171.91 232.01v-20.00" stroke="currentColor" fill="none"/>
<path fill="currentColor"
	d="M211.91 199.01l63.80 0.00v3.20l-63.80 -0.00"/>
<use x="208.71" y="220.01" xlink:href="#hd"/>
<path d="M212.21 220.01v-20.00" stroke="currentColor" fill="none"/>
<use x="229.81" y="217.01" xlink:href="#hd"/>
<path d="M233.31 217.01v-17.00" stroke="currentColor" fill="none"/>
<use x="250.81" y="220.01" xlink:href="#hd"/>
<path d="M254.31 220.01v-20.00" stroke="currentColor" fill="none"/>
<use x="271.81" y="223.01" xlink:href="#hd"/>
<path d="M275.31 223.01v-23.00" stroke="currentColor" fill="none"/>
<use x="295.21" y="226.01" xlink:href="#hd"/>
<path d="M298.71 226.01v-20.00" stroke="currentColor" fill="none"/>
<use x="328.01" y="232.01" xlink:href="#hl"/>
<use x="328.01" y="232.01" xlink:href="#hd"/>
<path d="M331.51 232.01v-20.00" stroke="currentColor" fill="none"/>
<use x="366.91" y="232.01" xlink:href="#hl"/>
<use x="366.91" y="232.01" xlink:href="#hd"/>
<path d="M370.41 232.01v-20.00" stroke="currentColor" fill="none"/>
<defs>
<path id="r4" fill="currentColor" d="m-1 -8.5
	l3.6 5.1 -2.1 5.2 2.2 4.3
	c-2.6 -2.3 -5.1 0 -2.4 2.6
	c-4.8 -3 -1.5 -6.9 1.4 -4.1
	l-3.1 -4.5 1.9 -5.1 -1.5 -3.5"/>
</defs>
<use x="399.81" y="214.01" xlink:href="#r4"/>
<use x="429.41" y="232.01" xlink:href="#hl"/>
<use x="429.41" y="232.01" xlink:href="#Hd"/>
<path d="M432.91 232.01v-20.00" stroke="currentColor" fill="none"/>
<use x="479.11" y="232.01" xlink:href="#hl"/>
<use x="479.11" y="232.01" xlink:href="#hd"/>
<path d="M482.61 232.01v-20.00" stroke="currentColor" fill="none"/>
<use x="512.01" y="214.01" xlink:href="#r4"/>
<use x="541.61" y="232.01" xlink:href="#hl"/>
<use x="541.61" y="232.01" xlink:href="#Hd"/>
<path d="M545.11 232.01v-20.00" stroke="currentColor" fill="none"/>
<use x="23.11" y="284.01" xlink:href="#bclef"/>
<use x="50.11" y="269.01" xlink:href="#HD"/>
<use x="209.71" y="269.01" xlink:href="#HD"/>
<use x="366.91" y="272.01" xlink:href="#r4"/>
<use x="399.81" y="263.01" xlink:href="#hd"/>
<path d="M396.31 263.01v20.00" stroke="currentColor" fill="none"/>
<defs>
<rect id="r2" fill="currentColor"
	x="-3.5" y="-3" width="7" height="3"/>
</defs>
<use x="429.41" y="272.01" xlink:href="#r2"/>
<use x="479.11" y="272.01" xlink:href="#r4"/>
<use x="512.01" y="263.01" xlink:href="#hd"/>
<path d="M508.51 263.01v20.00" stroke="currentColor" fill="none"/>
<use x="541.61" y="272.01" xlink:href="#r2"/>
</g>
</svg>
