<?xml version="1.0" standalone="no"?>
<!DOCTYPE svg PUBLIC "-//W3C//DTD SVG 1.1//EN"
	"http://www.w3.org/Graphics/SVG/1.1/DTD/svg11.dtd">
<svg xmlns="http://www.w3.org/2000/svg" version="1.1"
	xmlns:xlink="http://www.w3.org/1999/xlink"
	xml:space='preserve' color="black"
	width="7.13in" height="5.54in" viewBox="0 0 513 399">
<title>BoosterMusic/05-ScarboroughFair.abc (1) tune 1</title>
<!-- Creator: abcm2ps-7.8.14 -->
<!-- CreationDate: Jun 17, 2019 08:15 -->
<!-- CommandLine: -g -s 0.9 -c BoosterMusic/05-ScarboroughFair.abc -O ../../doc/courses/BoosterMusic/05-ScarboroughFair.svg -->
<g transform="scale(0.900)" stroke-width="0.70" font-family="Times" font-size="20.00">
<text x="285.11" y="21.67" text-anchor="middle">Scarborough Fair</text>
</g>
<g transform="scale(0.630)" stroke-width="0.70" font-family="Times" font-size="20.00">
<defs>
<ellipse id="hd" rx="4.1" ry="2.9"
	transform="rotate(-20)" fill="currentColor"/>
</defs>
<use x="102.44" y="94.16" xlink:href="#hd"/>
<path d="M105.94 94.16v-20.00" stroke="currentColor" fill="none"/>
</g>
<g transform="scale(0.900)" stroke-width="0.70" font-family="Times" font-size="15.00" font-weight="bold">
<text x="79.41" y="68.01">= 30</text>
<path stroke="currentColor" fill="none"
	d="M11.11 164.01v-82.00"/>
<defs>
<g id="rdots" fill="currentColor">
	<circle cx="0" cy="-9" r="1.2"/>
	<circle cx="0" cy="-15" r="1.2"/>
</g>
</defs>
<use x="70.11" y="106.01" xlink:href="#rdots"/>
<path stroke="currentColor" fill="none"
	d="M66.11 106.01v-24.00"/>
<path stroke="currentColor" fill="none" stroke-width="3"
	d="M61.61 106.01v-24.00"/>
<use x="70.11" y="164.01" xlink:href="#rdots"/>
<path stroke="currentColor" fill="none"
	d="M66.11 164.01v-58.00"/>
<path stroke="currentColor" fill="none" stroke-width="3"
	d="M61.61 164.01v-58.00"/>
<path stroke="currentColor" fill="none"
	d="M167.91 106.01v-24.00"/>
<path stroke="currentColor" fill="none"
	d="M167.91 164.01v-58.00"/>
<path stroke="currentColor" fill="none"
	d="M264.81 106.01v-24.00"/>
<path stroke="currentColor" fill="none"
	d="M264.81 164.01v-58.00"/>
<path stroke="currentColor" fill="none"
	d="M378.11 106.01v-24.00"/>
<path stroke="currentColor" fill="none"
	d="M378.11 164.01v-58.00"/>
<path stroke="currentColor" fill="none"
	d="M440.41 106.01v-24.00"/>
<path stroke="currentColor" fill="none"
	d="M440.41 164.01v-58.00"/>
<path stroke="currentColor" fill="none"
	d="M559.21 106.01v-24.00"/>
<path stroke="currentColor" fill="none"
	d="M559.21 164.01v-58.00"/>
<path stroke="currentColor" fill="none"
	d="M11.11 106.01h548.10m-548.10 -6h548.10m-548.10 -6h548.10m-548.10 -6h548.10m-548.10 -6h548.10"/>
<path stroke="currentColor" fill="none"
	d="M11.11 164.01h548.10m-548.10 -6h548.10m-548.10 -6h548.10m-548.10 -6h548.10m-548.10 -6h548.10"/>
<defs>
<path id="utclef" fill="currentColor" d="m-50 -90
	c-72 -41 -72 -158 52 -188
	c150 -10 220 188 90 256
	c-114 52 -275 0 -293 -136
	c-15 -181 93 -229 220 -334
	c88 -87 79 -133 62 -210
	c-51 33 -94 105 -89 186
	c17 267 36 374 49 574
	c6 96 -19 134 -77 135
	c-80 1 -126 -93 -61 -133
	c85 -41 133 101 31 105
	c23 17 92 37 90 -92
	c-10 -223 -39 -342 -50 -617
	c0 -90 0 -162 96 -232
	c56 72 63 230 22 289
	c-74 106 -257 168 -255 316
	c9 153 148 185 252 133
	c86 -65 29 -192 -80 -176
	c-71 12 -105 67 -59 124"/>
<use id="tclef" transform="scale(0.045)"
	xlink:href="#utclef"/>
</defs>
<use x="23.11" y="106.01" xlink:href="#tclef"/>
<g font-family="serif" font-size="16" font-weight="bold" font-style="normal"
	transform="translate(41.61,106.01) scale(1.2,1)">
	<text y="-1" text-anchor="middle">4</text>
	<text y="-13" text-anchor="middle">3</text>
</g>
<defs>
<path id="Hd" fill="currentColor" d="m3 -1.6
	c-1 -1.8 -7 1.4 -6 3.2
	c1 1.8 7 -1.4 6 -3.2
	m0.5 -0.3
	c2 3.8 -5 7.6 -7 3.8
	c-2 -3.8 5 -7.6 7 -3.8"/>
</defs>
<use x="85.11" y="109.01" xlink:href="#Hd"/>
<path d="M88.61 109.01v-20.00" stroke="currentColor" fill="none"/>
<use x="138.01" y="109.01" xlink:href="#hd"/>
<path d="M141.51 109.01v-20.00" stroke="currentColor" fill="none"/>
<use x="181.91" y="97.01" xlink:href="#Hd"/>
<path d="M185.41 97.01v-20.00" stroke="currentColor" fill="none"/>
<use x="234.81" y="97.01" xlink:href="#hd"/>
<path d="M238.31 97.01v-20.00" stroke="currentColor" fill="none"/>
<use x="278.81" y="106.01" xlink:href="#hd"/>
<circle fill="currentColor" cx="286.81" cy="103.01" r="1.2"/>
<path d="M282.31 106.01v-20.00" stroke="currentColor" fill="none"/>
<use x="321.51" y="103.01" xlink:href="#hd"/>
<path d="M325.01 103.01v-20.00" stroke="currentColor" fill="none"/>
<path fill="currentColor"
	d="	M325.01 83.01c0.6 5.6 9.6 9 5.6 18.4
	c1.6 -6 -1.3 -11.6 -5.6 -12.8
"/>
<use x="348.11" y="106.01" xlink:href="#hd"/>
<path d="M351.61 106.01v-20.00" stroke="currentColor" fill="none"/>
<use x="392.11" y="109.01" xlink:href="#Hd"/>
<circle fill="currentColor" cx="401.11" cy="109.01" r="1.2"/>
<path d="M395.61 109.01v-20.00" stroke="currentColor" fill="none"/>
<defs>
<path id="r4" fill="currentColor" d="m-1 -8.5
	l3.6 5.1 -2.1 5.2 2.2 4.3
	c-2.6 -2.3 -5.1 0 -2.4 2.6
	c-4.8 -3 -1.5 -6.9 1.4 -4.1
	l-3.1 -4.5 1.9 -5.1 -1.5 -3.5"/>
</defs>
<use x="454.41" y="94.01" xlink:href="#r4"/>
<use x="491.81" y="97.01" xlink:href="#hd"/>
<path d="M495.31 97.01v-20.00" stroke="currentColor" fill="none"/>
<use x="529.21" y="91.01" xlink:href="#hd"/>
<path d="M525.71 91.01v20.00" stroke="currentColor" fill="none"/>
<defs>
<path id="ubclef" fill="currentColor" d="m-200 -87
	c124 -35 222 -78 254 -236
	c43 -228 -167 -246 -192 -103
	c59 -80 157 22 92 78
	c-62 47 -115 -22 -106 -88
	c21 -141 270 -136 274 52
	c-1 175 -106 264 -322 297
	m357 -250
	c0 -36 51 -34 51 0
	c0 37 -51 36 -51 0
	m-2 -129
	c0 -36 51 -34 51 0
	c0 38 -51 37 -51 0"/>
<use id="bclef" transform="scale(0.045)"
	xlink:href="#ubclef"/>
</defs>
<use x="23.11" y="164.01" xlink:href="#bclef"/>
<g font-family="serif" font-size="16" font-weight="bold" font-style="normal"
	transform="translate(41.61,164.01) scale(1.2,1)">
	<text y="-1" text-anchor="middle">4</text>
	<text y="-13" text-anchor="middle">3</text>
</g>
<defs>
<rect id="r1" fill="currentColor"
	x="-3.5" y="-6" width="7" height="3"/>
</defs>
<use x="119.51" y="152.01" xlink:href="#r1"/>
<use x="216.31" y="152.01" xlink:href="#r1"/>
<use x="321.41" y="152.01" xlink:href="#r1"/>
<use x="409.21" y="152.01" xlink:href="#r1"/>
<use x="499.81" y="152.01" xlink:href="#r1"/>
<path stroke="currentColor" fill="none"
	d="M11.11 292.01v-82.00"/>
<path stroke="currentColor" fill="none"
	d="M121.01 234.01v-24.00"/>
<path stroke="currentColor" fill="none"
	d="M121.01 292.01v-58.00"/>
<path stroke="currentColor" fill="none"
	d="M226.11 234.01v-24.00"/>
<path stroke="currentColor" fill="none"
	d="M226.11 292.01v-58.00"/>
<path stroke="currentColor" fill="none"
	d="M282.31 234.01v-24.00"/>
<path stroke="currentColor" fill="none"
	d="M282.31 292.01v-58.00"/>
<path stroke="currentColor" fill="none"
	d="M387.41 234.01v-24.00"/>
<path stroke="currentColor" fill="none"
	d="M387.41 292.01v-58.00"/>
<path stroke="currentColor" fill="none"
	d="M473.31 234.01v-24.00"/>
<path stroke="currentColor" fill="none"
	d="M473.31 292.01v-58.00"/>
<path stroke="currentColor" fill="none"
	d="M559.21 234.01v-24.00"/>
<path stroke="currentColor" fill="none"
	d="M559.21 292.01v-58.00"/>
<path stroke="currentColor" fill="none"
	d="M11.11 234.01h548.10m-548.10 -6h548.10m-548.10 -6h548.10m-548.10 -6h548.10m-548.10 -6h548.10"/>
<path stroke="currentColor" fill="none"
	d="M11.11 292.01h548.10m-548.10 -6h548.10m-548.10 -6h548.10m-548.10 -6h548.10m-548.10 -6h548.10"/>
<use x="23.11" y="234.01" xlink:href="#tclef"/>
<use x="49.11" y="216.01" xlink:href="#Hd"/>
<path d="M45.61 216.01v20.00" stroke="currentColor" fill="none"/>
<use x="94.91" y="219.01" xlink:href="#hd"/>
<path d="M91.41 219.01v20.00" stroke="currentColor" fill="none"/>
<use x="135.01" y="225.01" xlink:href="#hd"/>
<path d="M138.51 225.01v-20.00" stroke="currentColor" fill="none"/>
<use x="167.51" y="222.01" xlink:href="#hd"/>
<path d="M171.01 222.01v-20.00" stroke="currentColor" fill="none"/>
<use x="200.01" y="228.01" xlink:href="#hd"/>
<path d="M203.51 228.01v-20.00" stroke="currentColor" fill="none"/>
<use x="240.11" y="225.01" xlink:href="#Hd"/>
<circle fill="currentColor" cx="249.11" cy="225.01" r="1.2"/>
<path d="M243.61 225.01v-20.00" stroke="currentColor" fill="none"/>
<use x="296.31" y="225.01" xlink:href="#hd"/>
<path d="M299.81 225.01v-20.00" stroke="currentColor" fill="none"/>
<use x="328.81" y="222.01" xlink:href="#r4"/>
<use x="361.31" y="216.01" xlink:href="#hd"/>
<path d="M357.81 216.01v20.00" stroke="currentColor" fill="none"/>
<use x="401.41" y="216.01" xlink:href="#Hd"/>
<path d="M397.91 216.01v20.00" stroke="currentColor" fill="none"/>
<use x="447.21" y="216.01" xlink:href="#hd"/>
<path d="M443.71 216.01v20.00" stroke="currentColor" fill="none"/>
<use x="487.31" y="219.01" xlink:href="#Hd"/>
<path d="M483.81 219.01v20.00" stroke="currentColor" fill="none"/>
<use x="533.11" y="225.01" xlink:href="#hd"/>
<path d="M536.61 225.01v-20.00" stroke="currentColor" fill="none"/>
<path fill="currentColor"
	d="M243.61 227.01c7.54 5.39 41.63 5.39 49.17 -0.00
	l0.00 0.25c-9.02 7.14 -40.15 7.14 -49.17 -0.25"/>
<use x="23.11" y="292.01" xlink:href="#bclef"/>
<use x="77.11" y="280.01" xlink:href="#r1"/>
<use x="173.61" y="280.01" xlink:href="#r1"/>
<use x="254.21" y="280.01" xlink:href="#r1"/>
<use x="334.81" y="280.01" xlink:href="#r1"/>
<use x="430.31" y="280.01" xlink:href="#r1"/>
<use x="516.21" y="280.01" xlink:href="#r1"/>
<path stroke="currentColor" fill="none"
	d="M11.11 420.01v-82.00"/>
<path stroke="currentColor" fill="none"
	d="M118.61 362.01v-24.00"/>
<path stroke="currentColor" fill="none"
	d="M118.61 420.01v-58.00"/>
<path stroke="currentColor" fill="none"
	d="M196.21 362.01v-24.00"/>
<path stroke="currentColor" fill="none"
	d="M196.21 420.01v-58.00"/>
<path stroke="currentColor" fill="none"
	d="M243.11 362.01v-24.00"/>
<path stroke="currentColor" fill="none"
	d="M243.11 420.01v-58.00"/>
<path stroke="currentColor" fill="none"
	d="M311.71 362.01v-24.00"/>
<path stroke="currentColor" fill="none"
	d="M311.71 420.01v-58.00"/>
<path stroke="currentColor" fill="none"
	d="M380.21 362.01v-24.00"/>
<path stroke="currentColor" fill="none"
	d="M380.21 420.01v-58.00"/>
<path stroke="currentColor" fill="none"
	d="M463.81 362.01v-24.00"/>
<path stroke="currentColor" fill="none"
	d="M463.81 420.01v-58.00"/>
<path stroke="currentColor" fill="none"
	d="M510.61 362.01v-24.00"/>
<path stroke="currentColor" fill="none"
	d="M510.61 420.01v-58.00"/>
<path stroke="currentColor" fill="none" stroke-width="3"
	d="M557.71 362.01v-24.00"/>
<path stroke="currentColor" fill="none"
	d="M553.21 362.01v-24.00"/>
<use x="549.21" y="362.01" xlink:href="#rdots"/>
<path stroke="currentColor" fill="none" stroke-width="3"
	d="M557.71 420.01v-58.00"/>
<path stroke="currentColor" fill="none"
	d="M553.21 420.01v-58.00"/>
<use x="549.21" y="420.01" xlink:href="#rdots"/>
<path stroke="currentColor" fill="none"
	d="M11.11 362.01h548.10m-548.10 -6h548.10m-548.10 -6h548.10m-548.10 -6h548.10m-548.10 -6h548.10"/>
<path stroke="currentColor" fill="none"
	d="M11.11 420.01h548.10m-548.10 -6h548.10m-548.10 -6h548.10m-548.10 -6h548.10m-548.10 -6h548.10"/>
<use x="23.11" y="362.01" xlink:href="#tclef"/>
<use x="49.11" y="353.01" xlink:href="#hd"/>
<path d="M52.61 353.01v-20.00" stroke="currentColor" fill="none"/>
<use x="73.81" y="356.01" xlink:href="#hd"/>
<path d="M77.31 356.01v-20.00" stroke="currentColor" fill="none"/>
<use x="98.51" y="359.01" xlink:href="#hd"/>
<path d="M102.01 359.01v-20.00" stroke="currentColor" fill="none"/>
<path fill="currentColor"
	d="M135.81 342.71l16.90 3.60v3.20l-16.90 -3.60"/>
<use x="132.61" y="362.01" xlink:href="#hd"/>
<path d="M136.11 362.01v-18.20" stroke="currentColor" fill="none"/>
<defs>
<path id="hl" stroke="currentColor" d="m-6 0h12"/>
</defs>
<use x="148.91" y="368.01" xlink:href="#hl"/>
<use x="148.91" y="368.01" xlink:href="#hd"/>
<path d="M152.41 368.01v-20.70" stroke="currentColor" fill="none"/>
<use x="168.31" y="368.01" xlink:href="#hl"/>
<use x="168.31" y="368.01" xlink:href="#Hd"/>
<path d="M171.81 368.01v-20.00" stroke="currentColor" fill="none"/>
<use x="210.21" y="368.01" xlink:href="#hl"/>
<use x="210.21" y="368.01" xlink:href="#Hd"/>
<circle fill="currentColor" cx="219.21" cy="365.01" r="1.2"/>
<path d="M213.71 368.01v-20.00" stroke="currentColor" fill="none"/>
<use x="257.11" y="365.01" xlink:href="#Hd"/>
<path d="M260.61 365.01v-20.00" stroke="currentColor" fill="none"/>
<use x="291.51" y="353.01" xlink:href="#hd"/>
<path d="M295.01 353.01v-20.00" stroke="currentColor" fill="none"/>
<use x="325.71" y="356.01" xlink:href="#Hd"/>
<path d="M329.21 356.01v-20.00" stroke="currentColor" fill="none"/>
<use x="360.11" y="359.01" xlink:href="#hd"/>
<path d="M363.61 359.01v-20.00" stroke="currentColor" fill="none"/>
<use x="394.21" y="362.01" xlink:href="#hd"/>
<path d="M397.71 362.01v-20.00" stroke="currentColor" fill="none"/>
<use x="418.91" y="365.01" xlink:href="#hd"/>
<path d="M422.41 365.01v-20.00" stroke="currentColor" fill="none"/>
<use x="443.61" y="368.01" xlink:href="#hl"/>
<use x="443.61" y="368.01" xlink:href="#hd"/>
<path d="M447.11 368.01v-20.00" stroke="currentColor" fill="none"/>
<use x="477.81" y="365.01" xlink:href="#Hd"/>
<circle fill="currentColor" cx="486.81" cy="365.01" r="1.2"/>
<path d="M481.31 365.01v-20.00" stroke="currentColor" fill="none"/>
<use x="524.61" y="365.01" xlink:href="#Hd"/>
<circle fill="currentColor" cx="533.61" cy="365.01" r="1.2"/>
<path d="M528.11 365.01v-20.00" stroke="currentColor" fill="none"/>
<path fill="currentColor"
	d="M148.91 368.01c3.06 4.85 16.36 4.85 19.41 -0.00
	l0.00 0.22c-3.64 6.63 -15.77 6.63 -19.41 -0.22"/>
<path fill="currentColor"
	d="M171.81 368.01c5.50 5.13 29.43 5.13 34.93 -0.00
	l0.00 0.23c-6.55 6.89 -28.38 6.89 -34.93 -0.23"/>
<path fill="currentColor"
	d="M481.31 367.01c6.28 5.22 33.57 5.22 39.84 -0.00
	l0.00 0.24c-7.47 6.98 -32.37 6.98 -39.84 -0.24"/>
<use x="23.11" y="420.01" xlink:href="#bclef"/>
<use x="75.91" y="408.01" xlink:href="#r1"/>
<use x="157.41" y="408.01" xlink:href="#r1"/>
<use x="219.71" y="408.01" xlink:href="#r1"/>
<use x="277.41" y="408.01" xlink:href="#r1"/>
<use x="345.91" y="408.01" xlink:href="#r1"/>
<use x="422.01" y="408.01" xlink:href="#r1"/>
<use x="487.21" y="408.01" xlink:href="#r1"/>
<use x="534.91" y="408.01" xlink:href="#r1"/>
</g>
</svg>
