<?xml version="1.0" standalone="no"?>
<!DOCTYPE svg PUBLIC "-//W3C//DTD SVG 1.1//EN"
	"http://www.w3.org/Graphics/SVG/1.1/DTD/svg11.dtd">
<svg xmlns="http://www.w3.org/2000/svg" version="1.1"
	xmlns:xlink="http://www.w3.org/1999/xlink"
	xml:space='preserve' color="black"
	width="7.38in" height="7.95in" viewBox="0 0 531 572">
<title>BoosterMusic/AmazingGracePs.abc (1) tune 1</title>
<!-- Creator: abcm2ps-7.8.9 -->
<!-- CreationDate: May 18, 2018 14:42 -->
<!-- CommandLine: -g -s 0.9 -c BoosterMusic/AmazingGracePs.abc -O PianoBoosterMusic/BoosterMusic/AmazingGracePs.svg -->
<g transform="scale(0.900)" stroke-width="0.70" font-family="Times" font-size="20.00">
<text x="295.11" y="21.67" text-anchor="middle">Amazing Grace</text>
</g>
<g transform="scale(0.900)" stroke-width="0.70" font-family="Times" font-size="14.00" font-style="italic">
<text x="579.11" y="45.34" text-anchor="end">Traditional</text>
</g>
<g transform="scale(0.900)" stroke-width="0.70" font-family="Times" font-size="15.00" font-weight="bold">
<text x="68.61" y="68.01">English Waltz  </text>
</g>
<g transform="scale(0.630)" stroke-width="0.70" font-family="Times" font-size="15.00" font-weight="bold">
<defs>
<ellipse id="hd" rx="4.1" ry="2.9"
	transform="rotate(-20)" fill="currentColor"/>
</defs>
<use x="252.02" y="94.16" xlink:href="#hd"/>
<path d="M255.52 94.16v-20.00" stroke="currentColor" fill="none"/>
</g>
<g transform="scale(0.900)" stroke-width="0.70" font-family="Times" font-size="15.00" font-weight="bold">
<text x="184.11" y="68.01">= 87</text>
<path stroke="currentColor" fill="none"
	d="M11.11 185.01v-89.00"/>
<defs>
<path id="brace" fill="currentColor" d="m-2.5 101
	c-4.5 -4.6 -7.5 -12.2 -4.4 -26.8
	c3.5 -14.3 3.2 -21.7 -2.1 -24.2
	c7.4 2.4 7.3 14.2 3.5 29.5
	c-2.7 9.5 -1.5 16.2 3 21.5
	M-2.5 1c-4.5 4.6 -7.5 12.2 -4.4 26.8
	c3.5 14.3 3.2 21.7 -2.1 24.2
	c7.4 -2.4 7.3 -14.2 3.5 -29.5
	c-2.7 -9.5 -1.5 -16.2 3 -21.5"/>
</defs>
<g transform="translate(11.11,96.01) scale(1,0.89)">
	<use xlink:href="#brace"/>
</g>
<defs>
<g id="rdots" fill="currentColor">
	<circle cx="0" cy="-9" r="1.2"/>
	<circle cx="0" cy="-15" r="1.2"/>
</g>
</defs>
<use x="163.11" y="120.01" xlink:href="#rdots"/>
<path stroke="currentColor" fill="none"
	d="M159.11 120.01v-24.00"/>
<path stroke="currentColor" fill="none" stroke-width="3"
	d="M154.61 120.01v-24.00"/>
<use x="163.11" y="185.01" xlink:href="#rdots"/>
<path stroke="currentColor" fill="none"
	d="M159.11 185.01v-65.00"/>
<path stroke="currentColor" fill="none" stroke-width="3"
	d="M154.61 185.01v-65.00"/>
<path stroke="currentColor" fill="none"
	d="M271.61 120.01v-24.00"/>
<path stroke="currentColor" fill="none"
	d="M271.61 185.01v-65.00"/>
<path stroke="currentColor" fill="none"
	d="M370.51 120.01v-24.00"/>
<path stroke="currentColor" fill="none"
	d="M370.51 185.01v-65.00"/>
<path stroke="currentColor" fill="none"
	d="M467.61 120.01v-24.00"/>
<path stroke="currentColor" fill="none"
	d="M467.61 185.01v-65.00"/>
<path stroke="currentColor" fill="none"
	d="M579.11 120.01v-24.00"/>
<path stroke="currentColor" fill="none"
	d="M579.11 185.01v-65.00"/>
<path stroke="currentColor" fill="none"
	d="M11.11 120.01h568.00m-568.00 -6h568.00m-568.00 -6h568.00m-568.00 -6h568.00m-568.00 -6h568.00"/>
<path stroke="currentColor" fill="none"
	d="M11.11 185.01h568.00m-568.00 -6h568.00m-568.00 -6h568.00m-568.00 -6h568.00m-568.00 -6h568.00"/>
</g>
<g transform="scale(0.900)" stroke-width="0.70" font-family="Times" font-size="13.00" font-weight="bold">
<text x="112.01" y="141.81">A</text>
<path stroke="currentColor" fill="none" stroke-width="0.8"
	d="M124.91 141.81h20.60"/>
<text x="172.11" y="141.81">ma</text>
<path stroke="currentColor" fill="none" stroke-width="1.2"
	stroke-dasharray="5,23"
	d="M205.01 137.91h5"/>
<text x="219.41" y="141.81">zing</text>
<path stroke="currentColor" fill="none" stroke-width="0.8"
	d="M245.91 141.81h12.60"/>
<text x="279.61" y="141.81">grace,</text>
<text x="331.41" y="141.81">how</text>
<text x="378.51" y="141.81">sweet</text>
<text x="431.81" y="141.81">the</text>
<text x="475.61" y="141.81">sound</text>
<text x="528.31" y="141.81">that</text>
<path stroke="currentColor" fill="none" stroke-width="0.8"
	d="M551.81 141.81h14.20"/>
</g>
<g transform="scale(0.900)" stroke-width="0.70" font-family="Helvetica" font-size="12.00">
<text x="181.31" y="83.61">F</text>
<text x="387.81" y="83.61">B♭</text>
<text x="488.41" y="83.61">F</text>
<defs>
<path id="utclef" fill="currentColor" d="m-50 -90
	c-72 -41 -72 -158 52 -188
	c150 -10 220 188 90 256
	c-114 52 -275 0 -293 -136
	c-15 -181 93 -229 220 -334
	c88 -87 79 -133 62 -210
	c-51 33 -94 105 -89 186
	c17 267 36 374 49 574
	c6 96 -19 134 -77 135
	c-80 1 -126 -93 -61 -133
	c85 -41 133 101 31 105
	c23 17 92 37 90 -92
	c-10 -223 -39 -342 -50 -617
	c0 -90 0 -162 96 -232
	c56 72 63 230 22 289
	c-74 106 -257 168 -255 316
	c9 153 148 185 252 133
	c86 -65 29 -192 -80 -176
	c-71 12 -105 67 -59 124"/>
<use id="tclef" transform="scale(0.045)"
	xlink:href="#utclef"/>
</defs>
<use x="23.11" y="120.01" xlink:href="#tclef"/>
<defs>
<path id="uflat" fill="currentColor" d="
	m100 -746
	h32
	v734
	l-32 4
	m32 -332
	c46 -72 152 -90 208 -20
	c100 110 -120 326 -208 348
	m0 -28
	c54 0 200 -206 130 -290
	c-50 -60 -130 -4 -130 34"/>
<use id="ft0" transform="translate(-3.5,3.5) scale(0.018)"
	xlink:href="#uflat"/>
</defs>
<use x="38.11" y="108.01" xlink:href="#ft0"/>
<g font-family="serif" font-size="16" font-weight="bold" font-style="normal"
	transform="translate(54.11,120.01) scale(1.2,1)">
	<text y="-1" text-anchor="middle">4</text>
	<text y="-13" text-anchor="middle">3</text>
</g>
<defs>
<rect id="r2" fill="currentColor"
	x="-3.5" y="-3" width="7" height="3"/>
</defs>
<use x="73.61" y="108.01" xlink:href="#r2"/>
<path fill="currentColor"
	d="M121.81 102.71l21.40 -5.00v3.20l-21.40 5.00"/>
<defs>
<path id="hl" stroke="currentColor" d="m-6 0h12"/>
</defs>
<use x="118.71" y="126.01" xlink:href="#hl"/>
<use x="118.71" y="126.01" xlink:href="#hd"/>
<path d="M122.21 126.01v-22.40" stroke="currentColor" fill="none"/>
<use x="139.41" y="117.01" xlink:href="#hd"/>
<path d="M142.91 117.01v-18.20" stroke="currentColor" fill="none"/>
<defs>
<path id="Hd" fill="currentColor" d="m3 -1.6
	c-1 -1.8 -7 1.4 -6 3.2
	c1 1.8 7 -1.4 6 -3.2
	m0.5 -0.3
	c2 3.8 -5 7.6 -7 3.8
	c-2 -3.8 5 -7.6 7 -3.8"/>
</defs>
<use x="184.21" y="117.01" xlink:href="#Hd"/>
<path d="M187.71 117.01v-20.00" stroke="currentColor" fill="none"/>
<path fill="currentColor"
	d="M234.71 91.71l21.60 3.90v3.20l-21.60 -3.90"/>
<use x="231.51" y="111.01" xlink:href="#hd"/>
<path d="M235.01 111.01v-18.20" stroke="currentColor" fill="none"/>
<use x="252.51" y="117.01" xlink:href="#hd"/>
<path d="M256.01 117.01v-20.40" stroke="currentColor" fill="none"/>
<use x="295.51" y="111.01" xlink:href="#Hd"/>
<path d="M299.01 111.01v-20.00" stroke="currentColor" fill="none"/>
<use x="343.61" y="114.01" xlink:href="#hd"/>
<path d="M347.11 114.01v-20.00" stroke="currentColor" fill="none"/>
<use x="393.61" y="117.01" xlink:href="#Hd"/>
<path d="M397.11 117.01v-20.00" stroke="currentColor" fill="none"/>
<use x="441.21" y="123.01" xlink:href="#hd"/>
<path d="M444.71 123.01v-20.00" stroke="currentColor" fill="none"/>
<use x="491.41" y="126.01" xlink:href="#hl"/>
<use x="491.41" y="126.01" xlink:href="#Hd"/>
<path d="M494.91 126.01v-20.00" stroke="currentColor" fill="none"/>
<path fill="currentColor"
	d="M542.41 102.71l21.40 -5.00v3.20l-21.40 5.00"/>
<use x="539.21" y="126.01" xlink:href="#hl"/>
<use x="539.21" y="126.01" xlink:href="#hd"/>
<path d="M542.71 126.01v-22.40" stroke="currentColor" fill="none"/>
<use x="560.01" y="117.01" xlink:href="#hd"/>
<path d="M563.51 117.01v-18.20" stroke="currentColor" fill="none"/>
<defs>
<path id="ubclef" fill="currentColor" d="m-200 -87
	c124 -35 222 -78 254 -236
	c43 -228 -167 -246 -192 -103
	c59 -80 157 22 92 78
	c-62 47 -115 -22 -106 -88
	c21 -141 270 -136 274 52
	c-1 175 -106 264 -322 297
	m357 -250
	c0 -36 51 -34 51 0
	c0 37 -51 36 -51 0
	m-2 -129
	c0 -36 51 -34 51 0
	c0 38 -51 37 -51 0"/>
<use id="bclef" transform="scale(0.045)"
	xlink:href="#ubclef"/>
</defs>
<use x="23.11" y="185.01" xlink:href="#bclef"/>
<use x="38.11" y="179.01" xlink:href="#ft0"/>
<g font-family="serif" font-size="16" font-weight="bold" font-style="normal"
	transform="translate(54.11,185.01) scale(1.2,1)">
	<text y="-1" text-anchor="middle">4</text>
	<text y="-13" text-anchor="middle">3</text>
</g>
<defs>
<rect id="r1" fill="currentColor"
	x="-3.5" y="-6" width="7" height="3"/>
</defs>
<use x="109.11" y="173.01" xlink:href="#r1"/>
<use x="184.21" y="188.01" xlink:href="#Hd"/>
<circle fill="currentColor" cx="193.21" cy="188.01" r="1.2"/>
<path d="M187.71 188.01v-20.00" stroke="currentColor" fill="none"/>
<use x="295.51" y="167.01" xlink:href="#Hd"/>
<circle fill="currentColor" cx="304.51" cy="164.01" r="1.2"/>
<path d="M292.01 167.01v20.00" stroke="currentColor" fill="none"/>
<use x="393.61" y="179.01" xlink:href="#Hd"/>
<circle fill="currentColor" cx="402.61" cy="176.01" r="1.2"/>
<path d="M397.11 179.01v-20.00" stroke="currentColor" fill="none"/>
<use x="491.41" y="167.01" xlink:href="#Hd"/>
<circle fill="currentColor" cx="500.41" cy="164.01" r="1.2"/>
<path d="M487.91 167.01v20.00" stroke="currentColor" fill="none"/>
<text font-family="Bookman" font-size="8" font-weight="normal" font-style="normal"
	x="115.71" y="93.01">1</text>
<text font-family="Bookman" font-size="8" font-weight="normal" font-style="normal"
	x="136.41" y="93.01">3</text>
<text font-family="Bookman" font-size="8" font-weight="normal" font-style="normal"
	x="181.21" y="158.01">1</text>
<text font-family="Bookman" font-size="8" font-weight="normal" font-style="normal"
	x="292.51" y="158.01">5</text>
<text font-family="Bookman" font-size="8" font-weight="normal" font-style="normal"
	x="390.61" y="154.01">3</text>
<text font-family="Bookman" font-size="8" font-weight="normal" font-style="normal"
	x="438.21" y="93.01">2</text>
<text font-family="Bookman" font-size="8" font-weight="normal" font-style="normal"
	x="488.41" y="158.01">5</text>
<text font-family="Bookman" font-size="8" font-weight="normal" font-style="normal"
	x="557.01" y="93.01">2</text>
<path stroke="currentColor" fill="none"
	d="M11.11 326.01v-94.00"/>
<g transform="translate(11.11,232.01) scale(1,0.94)">
	<use xlink:href="#brace"/>
</g>
<path stroke="currentColor" fill="none"
	d="M163.51 256.01v-24.00"/>
<path stroke="currentColor" fill="none"
	d="M163.51 326.01v-70.00"/>
<path stroke="currentColor" fill="none"
	d="M274.41 256.01v-24.00"/>
<path stroke="currentColor" fill="none"
	d="M274.41 326.01v-70.00"/>
<path stroke="currentColor" fill="none"
	d="M343.11 256.01v-24.00"/>
<path stroke="currentColor" fill="none"
	d="M343.11 326.01v-70.00"/>
<path stroke="currentColor" fill="none"
	d="M457.31 256.01v-24.00"/>
<path stroke="currentColor" fill="none"
	d="M457.31 326.01v-70.00"/>
<path stroke="currentColor" fill="none"
	d="M579.11 256.01v-24.00"/>
<path stroke="currentColor" fill="none"
	d="M579.11 326.01v-70.00"/>
<path stroke="currentColor" fill="none"
	d="M11.11 256.01h568.00m-568.00 -6h568.00m-568.00 -6h568.00m-568.00 -6h568.00m-568.00 -6h568.00"/>
<path stroke="currentColor" fill="none"
	d="M11.11 326.01h568.00m-568.00 -6h568.00m-568.00 -6h568.00m-568.00 -6h568.00m-568.00 -6h568.00"/>
<path fill="currentColor"
	d="M294.61 233.01c9.17 -4.44 52.97 -4.44 62.14 -0.00
	l0.00 -0.26c-11.03 -6.18 -51.11 -6.18 -62.14 0.26"/>
<path fill="currentColor"
	d="M294.61 325.01c9.17 4.44 52.97 4.44 62.14 -0.00
	l0.00 0.26c-11.03 6.18 -51.11 6.18 -62.14 -0.26"/>
</g>
<g transform="scale(0.900)" stroke-width="0.70" font-family="Times" font-size="13.00" font-weight="bold">
<text x="47.61" y="279.81">saved</text>
<text x="112.01" y="279.81">a</text>
<path stroke="currentColor" fill="none" stroke-width="0.8"
	d="M121.11 279.81h26.50"/>
<text x="171.51" y="279.81">wretch</text>
<text x="232.71" y="279.81">like</text>
<text x="282.41" y="279.81">me!</text>
<path stroke="currentColor" fill="none" stroke-width="0.8"
	d="M306.61 279.81h56.10"/>
<text x="406.51" y="279.81">I</text>
<path stroke="currentColor" fill="none" stroke-width="0.8"
	d="M414.11 279.81h27.40"/>
<text x="465.31" y="279.81">once</text>
<text x="521.61" y="279.81">was</text>
<path stroke="currentColor" fill="none" stroke-width="0.8"
	d="M545.81 279.81h17.40"/>
</g>
<g transform="scale(0.900)" stroke-width="0.70" font-family="Helvetica" font-size="12.00">
<text x="287.51" y="219.61">C7</text>
<text x="475.41" y="219.61">F</text>
<use x="23.11" y="256.01" xlink:href="#tclef"/>
<use x="38.11" y="244.01" xlink:href="#ft0"/>
<use x="62.81" y="253.01" xlink:href="#Hd"/>
<path d="M66.31 253.01v-20.00" stroke="currentColor" fill="none"/>
<path fill="currentColor"
	d="M120.41 227.31l25.10 2.50v3.20l-25.10 -2.50"/>
<use x="117.21" y="247.01" xlink:href="#hd"/>
<path d="M120.71 247.01v-18.70" stroke="currentColor" fill="none"/>
<use x="141.61" y="250.01" xlink:href="#hd"/>
<path d="M145.11 250.01v-19.30" stroke="currentColor" fill="none"/>
<use x="189.01" y="247.01" xlink:href="#Hd"/>
<path d="M192.51 247.01v-20.00" stroke="currentColor" fill="none"/>
<use x="243.61" y="241.01" xlink:href="#hd"/>
<path d="M240.11 241.01v20.00" stroke="currentColor" fill="none"/>
<use x="293.61" y="241.01" xlink:href="#Hd"/>
<circle fill="currentColor" cx="302.61" cy="241.01" r="1.2"/>
<path d="M290.11 241.01v20.00" stroke="currentColor" fill="none"/>
<use x="356.81" y="241.01" xlink:href="#Hd"/>
<path d="M353.31 241.01v20.00" stroke="currentColor" fill="none"/>
<path fill="currentColor"
	d="M407.21 266.31l25.10 -4.10v-3.20l-25.10 4.10"/>
<use x="411.11" y="247.01" xlink:href="#hd"/>
<path d="M407.61 247.01v18.20" stroke="currentColor" fill="none"/>
<use x="435.51" y="241.01" xlink:href="#hd"/>
<path d="M432.01 241.01v20.20" stroke="currentColor" fill="none"/>
<use x="478.41" y="241.01" xlink:href="#Hd"/>
<path d="M474.91 241.01v20.00" stroke="currentColor" fill="none"/>
<path fill="currentColor"
	d="M536.01 227.71l25.10 4.10v3.20l-25.10 -4.10"/>
<use x="532.81" y="247.01" xlink:href="#hd"/>
<path d="M536.31 247.01v-18.20" stroke="currentColor" fill="none"/>
<use x="557.31" y="253.01" xlink:href="#hd"/>
<path d="M560.81 253.01v-20.20" stroke="currentColor" fill="none"/>
<use x="23.11" y="326.01" xlink:href="#bclef"/>
<use x="38.11" y="320.01" xlink:href="#ft0"/>
<use x="62.81" y="329.01" xlink:href="#Hd"/>
<circle fill="currentColor" cx="72.81" cy="329.01" r="1.2"/>
<path d="M66.31 329.01v-20.00" stroke="currentColor" fill="none"/>
<use x="189.01" y="308.01" xlink:href="#Hd"/>
<circle fill="currentColor" cx="198.01" cy="305.01" r="1.2"/>
<path d="M185.51 308.01v20.00" stroke="currentColor" fill="none"/>
<use x="293.61" y="317.01" xlink:href="#Hd"/>
<circle fill="currentColor" cx="302.61" cy="317.01" r="1.2"/>
<path d="M297.11 317.01v-20.00" stroke="currentColor" fill="none"/>
<use x="356.81" y="317.01" xlink:href="#Hd"/>
<circle fill="currentColor" cx="365.81" cy="317.01" r="1.2"/>
<path d="M360.31 317.01v-20.00" stroke="currentColor" fill="none"/>
<use x="478.41" y="329.01" xlink:href="#Hd"/>
<circle fill="currentColor" cx="487.41" cy="329.01" r="1.2"/>
<path d="M481.91 329.01v-20.00" stroke="currentColor" fill="none"/>
<text font-family="Bookman" font-size="8" font-weight="normal" font-style="normal"
	x="59.81" y="228.01">1</text>
<text font-family="Bookman" font-size="8" font-weight="normal" font-style="normal"
	x="59.81" y="299.01">1</text>
<text font-family="Bookman" font-size="8" font-weight="normal" font-style="normal"
	x="186.01" y="299.01">5</text>
<text font-family="Bookman" font-size="8" font-weight="normal" font-style="normal"
	x="290.61" y="292.01">4</text>
<text font-family="Bookman" font-size="8" font-weight="normal" font-style="normal"
	x="475.41" y="299.01">1</text>
<path stroke="currentColor" fill="none"
	d="M11.11 472.01v-89.00"/>
<g transform="translate(11.11,383.01) scale(1,0.89)">
	<use xlink:href="#brace"/>
</g>
<path stroke="currentColor" fill="none"
	d="M207.01 407.01v-24.00"/>
<path stroke="currentColor" fill="none"
	d="M207.01 472.01v-65.00"/>
<path stroke="currentColor" fill="none"
	d="M377.91 407.01v-24.00"/>
<path stroke="currentColor" fill="none"
	d="M377.91 472.01v-65.00"/>
<path stroke="currentColor" fill="none"
	d="M579.11 407.01v-24.00"/>
<path stroke="currentColor" fill="none"
	d="M579.11 472.01v-65.00"/>
<path stroke="currentColor" fill="none"
	d="M11.11 407.01h568.00m-568.00 -6h568.00m-568.00 -6h568.00m-568.00 -6h568.00m-568.00 -6h568.00"/>
<path stroke="currentColor" fill="none"
	d="M11.11 472.01h568.00m-568.00 -6h568.00m-568.00 -6h568.00m-568.00 -6h568.00m-568.00 -6h568.00"/>
</g>
<g transform="scale(0.900)" stroke-width="0.70" font-family="Times" font-size="13.00" font-weight="bold">
<text x="47.61" y="428.81">lost,</text>
<text x="144.01" y="428.81">but</text>
<text x="218.41" y="428.81">now</text>
<text x="314.11" y="428.81">I&apos;m</text>
<text x="388.11" y="428.81">found,</text>
<text x="486.61" y="428.81">Was</text>
<path stroke="currentColor" fill="none" stroke-width="0.8"
	d="M513.91 428.81h33.60"/>
</g>
<g transform="scale(0.900)" stroke-width="0.70" font-family="Helvetica" font-size="12.00">
<text x="54.01" y="360.61">F7</text>
<text x="224.71" y="360.61">B♭</text>
<text x="402.01" y="360.61">F</text>
<use x="23.11" y="407.01" xlink:href="#tclef"/>
<use x="38.11" y="395.01" xlink:href="#ft0"/>
<use x="59.61" y="398.01" xlink:href="#Hd"/>
<path d="M63.11 398.01v-20.00" stroke="currentColor" fill="none"/>
<use x="153.71" y="401.01" xlink:href="#hd"/>
<path d="M157.21 401.01v-20.00" stroke="currentColor" fill="none"/>
<use x="230.51" y="404.01" xlink:href="#Hd"/>
<path d="M234.01 404.01v-20.00" stroke="currentColor" fill="none"/>
<use x="324.71" y="410.01" xlink:href="#hd"/>
<path d="M328.21 410.01v-20.00" stroke="currentColor" fill="none"/>
<use x="404.91" y="413.01" xlink:href="#hl"/>
<use x="404.91" y="413.01" xlink:href="#Hd"/>
<path d="M408.41 413.01v-20.00" stroke="currentColor" fill="none"/>
<path fill="currentColor"
	d="M502.21 391.21l43.10 -6.40v3.20l-43.10 6.40"/>
<use x="499.11" y="413.01" xlink:href="#hl"/>
<use x="499.11" y="413.01" xlink:href="#hd"/>
<path d="M502.61 413.01v-20.90" stroke="currentColor" fill="none"/>
<use x="541.41" y="404.01" xlink:href="#hd"/>
<path d="M544.91 404.01v-18.20" stroke="currentColor" fill="none"/>
<use x="23.11" y="472.01" xlink:href="#bclef"/>
<use x="38.11" y="466.01" xlink:href="#ft0"/>
<use x="59.61" y="454.01" xlink:href="#Hd"/>
<circle fill="currentColor" cx="69.61" cy="451.01" r="1.2"/>
<path d="M56.11 454.01v20.00" stroke="currentColor" fill="none"/>
<use x="230.51" y="466.01" xlink:href="#Hd"/>
<circle fill="currentColor" cx="239.51" cy="463.01" r="1.2"/>
<path d="M234.01 466.01v-20.00" stroke="currentColor" fill="none"/>
<use x="404.91" y="475.01" xlink:href="#Hd"/>
<circle fill="currentColor" cx="413.91" cy="475.01" r="1.2"/>
<path d="M408.41 475.01v-20.00" stroke="currentColor" fill="none"/>
<text font-family="Bookman" font-size="8" font-weight="normal" font-style="normal"
	x="56.61" y="373.01">5</text>
<text font-family="Bookman" font-size="8" font-weight="normal" font-style="normal"
	x="56.61" y="445.01">5</text>
<text font-family="Bookman" font-size="8" font-weight="normal" font-style="normal"
	x="227.51" y="441.01">3</text>
<text font-family="Bookman" font-size="8" font-weight="normal" font-style="normal"
	x="321.71" y="380.01">2</text>
<text font-family="Bookman" font-size="8" font-weight="normal" font-style="normal"
	x="401.91" y="445.01">1</text>
<text font-family="Bookman" font-size="8" font-weight="normal" font-style="normal"
	x="538.41" y="380.01">3</text>
<path stroke="currentColor" fill="none"
	d="M11.11 613.01v-90.00"/>
<g transform="translate(11.11,523.01) scale(1,0.90)">
	<use xlink:href="#brace"/>
</g>
<path stroke="currentColor" fill="none"
	d="M162.61 547.01v-24.00"/>
<path stroke="currentColor" fill="none"
	d="M162.61 613.01v-66.00"/>
<path stroke="currentColor" fill="none"
	d="M266.81 547.01v-24.00"/>
<path stroke="currentColor" fill="none"
	d="M266.81 613.01v-66.00"/>
<path stroke="currentColor" fill="none"
	d="M341.21 547.01v-24.00"/>
<path stroke="currentColor" fill="none"
	d="M341.21 613.01v-66.00"/>
<path stroke="currentColor" fill="none" stroke-width="3"
	d="M452.71 547.01v-24.00"/>
<path stroke="currentColor" fill="none"
	d="M448.21 547.01v-24.00"/>
<use x="444.21" y="547.01" xlink:href="#rdots"/>
<path stroke="currentColor" fill="none" stroke-width="3"
	d="M452.71 613.01v-66.00"/>
<path stroke="currentColor" fill="none"
	d="M448.21 613.01v-66.00"/>
<use x="444.21" y="613.01" xlink:href="#rdots"/>
<path stroke="currentColor" fill="none"
	d="M522.61 547.01v-24.00"/>
<path stroke="currentColor" fill="none"
	d="M522.61 613.01v-66.00"/>
<path stroke="currentColor" fill="none" stroke-width="3"
	d="M577.61 547.01v-24.00"/>
<path stroke="currentColor" fill="none"
	d="M573.11 547.01v-24.00"/>
<path stroke="currentColor" fill="none" stroke-width="3"
	d="M577.61 613.01v-66.00"/>
<path stroke="currentColor" fill="none"
	d="M573.11 613.01v-66.00"/>
<path stroke="currentColor" fill="none"
	d="M11.11 547.01h568.00m-568.00 -6h568.00m-568.00 -6h568.00m-568.00 -6h568.00m-568.00 -6h568.00"/>
<path stroke="currentColor" fill="none"
	d="M11.11 613.01h568.00m-568.00 -6h568.00m-568.00 -6h568.00m-568.00 -6h568.00m-568.00 -6h568.00"/>
<path fill="currentColor"
	d="M293.31 552.01c9.08 4.43 52.35 4.43 61.44 -0.00
	l0.00 0.26c-10.93 6.17 -50.51 6.17 -61.44 -0.26"/>
<path fill="currentColor"
	d="M474.71 552.01c9.08 4.43 52.35 4.43 61.44 -0.00
	l0.00 0.26c-10.93 6.17 -50.51 6.17 -61.44 -0.26"/>
<path fill="currentColor"
	d="M293.31 624.01c9.08 4.43 52.35 4.43 61.44 -0.00
	l0.00 0.26c-10.93 6.17 -50.51 6.17 -61.44 -0.26"/>
<path fill="currentColor"
	d="M474.71 624.01c9.08 4.43 52.35 4.43 61.44 -0.00
	l0.00 0.26c-10.93 6.17 -50.51 6.17 -61.44 -0.26"/>
</g>
<g transform="scale(0.900)" stroke-width="0.70" font-family="Times" font-size="13.00" font-weight="bold">
<text x="47.61" y="566.81">blind,</text>
<text x="107.11" y="566.81">but</text>
<path stroke="currentColor" fill="none" stroke-width="0.8"
	d="M127.61 566.81h19.40"/>
<text x="170.61" y="566.81">now</text>
<text x="231.91" y="566.81">I</text>
<text x="281.31" y="566.81">see.</text>
<path stroke="currentColor" fill="none" stroke-width="0.8"
	d="M305.11 566.81h55.70"/>
</g>
<g transform="scale(0.900)" stroke-width="0.70" font-family="Helvetica" font-size="12.00">
<text x="176.61" y="508.61">C7</text>
<text x="289.41" y="508.61">F</text>
<text x="470.81" y="508.61">F</text>
</g>
<g transform="scale(0.900)" stroke-width="0.70" font-family="Times" font-size="13.00">
<text x="270.81" y="508.41">1</text>
<path stroke="currentColor" fill="none"
	d="M266.81 497.01v20M266.81 497.01h179.40v20"/>
<text x="458.21" y="508.41">2</text>
<path stroke="currentColor" fill="none"
	d="M454.21 497.01v20M454.21 497.01h124.90v20"/>
<use x="23.11" y="547.01" xlink:href="#tclef"/>
<use x="38.11" y="535.01" xlink:href="#ft0"/>
<use x="62.91" y="544.01" xlink:href="#Hd"/>
<path d="M66.41 544.01v-20.00" stroke="currentColor" fill="none"/>
<path fill="currentColor"
	d="M120.01 518.71l24.80 4.10v3.20l-24.80 -4.10"/>
<use x="116.81" y="538.01" xlink:href="#hd"/>
<path d="M120.31 538.01v-18.20" stroke="currentColor" fill="none"/>
<use x="141.01" y="544.01" xlink:href="#hd"/>
<path d="M144.51 544.01v-20.20" stroke="currentColor" fill="none"/>
<use x="182.71" y="538.01" xlink:href="#Hd"/>
<path d="M186.21 538.01v-20.00" stroke="currentColor" fill="none"/>
<use x="236.51" y="541.01" xlink:href="#hd"/>
<path d="M240.01 541.01v-20.00" stroke="currentColor" fill="none"/>
<use x="292.31" y="544.01" xlink:href="#Hd"/>
<circle fill="currentColor" cx="301.31" cy="544.01" r="1.2"/>
<path d="M295.81 544.01v-20.00" stroke="currentColor" fill="none"/>
<use x="354.81" y="544.01" xlink:href="#Hd"/>
<path d="M358.31 544.01v-20.00" stroke="currentColor" fill="none"/>
<path fill="currentColor"
	d="M411.51 530.01l24.80 -5.30v3.20l-24.80 5.30"/>
<use x="408.31" y="553.01" xlink:href="#hl"/>
<use x="408.31" y="553.01" xlink:href="#hd"/>
<path d="M411.81 553.01v-22.00" stroke="currentColor" fill="none"/>
<use x="432.51" y="544.01" xlink:href="#hd"/>
<path d="M436.01 544.01v-18.20" stroke="currentColor" fill="none"/>
<use x="473.71" y="544.01" xlink:href="#Hd"/>
<circle fill="currentColor" cx="482.71" cy="544.01" r="1.2"/>
<path d="M477.21 544.01v-20.00" stroke="currentColor" fill="none"/>
<use x="536.11" y="544.01" xlink:href="#Hd"/>
<path d="M539.61 544.01v-20.00" stroke="currentColor" fill="none"/>
<use x="23.11" y="613.01" xlink:href="#bclef"/>
<use x="38.11" y="607.01" xlink:href="#ft0"/>
<use x="62.91" y="595.01" xlink:href="#Hd"/>
<circle fill="currentColor" cx="72.91" cy="592.01" r="1.2"/>
<path d="M59.41 595.01v20.00" stroke="currentColor" fill="none"/>
<use x="182.71" y="604.01" xlink:href="#Hd"/>
<circle fill="currentColor" cx="191.71" cy="604.01" r="1.2"/>
<path d="M186.21 604.01v-20.00" stroke="currentColor" fill="none"/>
<use x="292.31" y="616.01" xlink:href="#Hd"/>
<circle fill="currentColor" cx="301.31" cy="616.01" r="1.2"/>
<path d="M295.81 616.01v-20.00" stroke="currentColor" fill="none"/>
<use x="354.81" y="616.01" xlink:href="#Hd"/>
<circle fill="currentColor" cx="363.81" cy="616.01" r="1.2"/>
<path d="M358.31 616.01v-20.00" stroke="currentColor" fill="none"/>
<use x="473.71" y="616.01" xlink:href="#Hd"/>
<circle fill="currentColor" cx="482.71" cy="616.01" r="1.2"/>
<path d="M477.21 616.01v-20.00" stroke="currentColor" fill="none"/>
<use x="536.11" y="616.01" xlink:href="#Hd"/>
<path d="M539.61 616.01v-20.00" stroke="currentColor" fill="none"/>
<text font-family="Bookman" font-size="8" font-weight="normal" font-style="normal"
	x="59.91" y="586.01">5</text>
<text font-family="Bookman" font-size="8" font-weight="normal" font-style="normal"
	x="179.71" y="579.01">3</text>
<text font-family="Bookman" font-size="8" font-weight="normal" font-style="normal"
	x="289.31" y="586.01">1</text>
<text font-family="Bookman" font-size="8" font-weight="normal" font-style="normal"
	x="405.31" y="520.01">1</text>
<text font-family="Bookman" font-size="8" font-weight="normal" font-style="normal"
	x="429.51" y="520.01">3</text>
<text font-family="Bookman" font-size="8" font-weight="normal" font-style="normal"
	x="470.71" y="586.01">1</text>
</g>
</svg>
