<?xml version="1.0" standalone="no"?>
<!DOCTYPE svg PUBLIC "-//W3C//DTD SVG 1.1//EN"
	"http://www.w3.org/Graphics/SVG/1.1/DTD/svg11.dtd">
<svg xmlns="http://www.w3.org/2000/svg" version="1.1"
	xmlns:xlink="http://www.w3.org/1999/xlink"
	xml:space='preserve' color="black"
	width="7.13in" height="7.95in" viewBox="0 0 513 572">
<title>BoosterMusic/AmazingGracePs.abc (1) tune 1</title>
<!-- Creator: abcm2ps-7.8.14 -->
<!-- CreationDate: Jun 10, 2019 02:18 -->
<!-- CommandLine: -g -s 0.9 -c BoosterMusic/AmazingGracePs.abc -O ../doc/courses/BoosterMusic/AmazingGracePs.svg -->
<g transform="scale(0.900)" stroke-width="0.70" font-family="Times" font-size="20.00">
<text x="285.11" y="21.67" text-anchor="middle">Amazing Grace</text>
</g>
<g transform="scale(0.900)" stroke-width="0.70" font-family="Times" font-size="14.00" font-style="italic">
<text x="559.21" y="45.34" text-anchor="end">Traditional</text>
</g>
<g transform="scale(0.900)" stroke-width="0.70" font-family="Times" font-size="15.00" font-weight="bold">
<text x="68.61" y="68.01">English Waltz  </text>
</g>
<g transform="scale(0.630)" stroke-width="0.70" font-family="Times" font-size="15.00" font-weight="bold">
<defs>
<ellipse id="hd" rx="4.1" ry="2.9"
	transform="rotate(-20)" fill="currentColor"/>
</defs>
<use x="252.02" y="94.16" xlink:href="#hd"/>
<path d="M255.52 94.16v-20.00" stroke="currentColor" fill="none"/>
</g>
<g transform="scale(0.900)" stroke-width="0.70" font-family="Times" font-size="15.00" font-weight="bold">
<text x="184.11" y="68.01">= 87</text>
<path stroke="currentColor" fill="none"
	d="M11.11 185.01v-89.00"/>
<defs>
<path id="brace" fill="currentColor" d="m-2.5 101
	c-4.5 -4.6 -7.5 -12.2 -4.4 -26.8
	c3.5 -14.3 3.2 -21.7 -2.1 -24.2
	c7.4 2.4 7.3 14.2 3.5 29.5
	c-2.7 9.5 -1.5 16.2 3 21.5
	M-2.5 1c-4.5 4.6 -7.5 12.2 -4.4 26.8
	c3.5 14.3 3.2 21.7 -2.1 24.2
	c7.4 -2.4 7.3 -14.2 3.5 -29.5
	c-2.7 -9.5 -1.5 -16.2 3 -21.5"/>
</defs>
<g transform="translate(11.11,96.01) scale(1,0.89)">
	<use xlink:href="#brace"/>
</g>
<defs>
<g id="rdots" fill="currentColor">
	<circle cx="0" cy="-9" r="1.2"/>
	<circle cx="0" cy="-15" r="1.2"/>
</g>
</defs>
<use x="158.71" y="120.01" xlink:href="#rdots"/>
<path stroke="currentColor" fill="none"
	d="M154.71 120.01v-24.00"/>
<path stroke="currentColor" fill="none" stroke-width="3"
	d="M150.21 120.01v-24.00"/>
<use x="158.71" y="185.01" xlink:href="#rdots"/>
<path stroke="currentColor" fill="none"
	d="M154.71 185.01v-65.00"/>
<path stroke="currentColor" fill="none" stroke-width="3"
	d="M150.21 185.01v-65.00"/>
<path stroke="currentColor" fill="none"
	d="M262.91 120.01v-24.00"/>
<path stroke="currentColor" fill="none"
	d="M262.91 185.01v-65.00"/>
<path stroke="currentColor" fill="none"
	d="M358.51 120.01v-24.00"/>
<path stroke="currentColor" fill="none"
	d="M358.51 185.01v-65.00"/>
<path stroke="currentColor" fill="none"
	d="M451.91 120.01v-24.00"/>
<path stroke="currentColor" fill="none"
	d="M451.91 185.01v-65.00"/>
<path stroke="currentColor" fill="none"
	d="M559.21 120.01v-24.00"/>
<path stroke="currentColor" fill="none"
	d="M559.21 185.01v-65.00"/>
<path stroke="currentColor" fill="none"
	d="M11.11 120.01h548.10m-548.10 -6h548.10m-548.10 -6h548.10m-548.10 -6h548.10m-548.10 -6h548.10"/>
<path stroke="currentColor" fill="none"
	d="M11.11 185.01h548.10m-548.10 -6h548.10m-548.10 -6h548.10m-548.10 -6h548.10m-548.10 -6h548.10"/>
</g>
<g transform="scale(0.900)" stroke-width="0.70" font-family="Times" font-size="13.00" font-weight="bold">
<text x="108.91" y="141.81">A</text>
<path stroke="currentColor" fill="none" stroke-width="0.8"
	d="M121.71 141.81h19.30"/>
<text x="167.71" y="141.81">ma</text>
<path stroke="currentColor" fill="none" stroke-width="1.2"
	stroke-dasharray="5,23"
	d="M199.46 137.91h5"/>
<text x="212.71" y="141.81">zing</text>
<path stroke="currentColor" fill="none" stroke-width="0.8"
	d="M239.21 141.81h11.40"/>
<text x="270.91" y="141.81">grace,</text>
<text x="320.71" y="141.81">how</text>
<text x="366.51" y="141.81">sweet</text>
<text x="417.61" y="141.81">the</text>
<text x="459.91" y="141.81">sound</text>
<text x="510.51" y="141.81">that</text>
<path stroke="currentColor" fill="none" stroke-width="0.8"
	d="M534.01 141.81h12.90"/>
</g>
<g transform="scale(0.900)" stroke-width="0.70" font-family="Helvetica" font-size="12.00">
<text x="176.91" y="83.61">F</text>
<text x="375.81" y="83.61">B♭</text>
<text x="472.81" y="83.61">F</text>
<defs>
<path id="utclef" fill="currentColor" d="m-50 -90
	c-72 -41 -72 -158 52 -188
	c150 -10 220 188 90 256
	c-114 52 -275 0 -293 -136
	c-15 -181 93 -229 220 -334
	c88 -87 79 -133 62 -210
	c-51 33 -94 105 -89 186
	c17 267 36 374 49 574
	c6 96 -19 134 -77 135
	c-80 1 -126 -93 -61 -133
	c85 -41 133 101 31 105
	c23 17 92 37 90 -92
	c-10 -223 -39 -342 -50 -617
	c0 -90 0 -162 96 -232
	c56 72 63 230 22 289
	c-74 106 -257 168 -255 316
	c9 153 148 185 252 133
	c86 -65 29 -192 -80 -176
	c-71 12 -105 67 -59 124"/>
<use id="tclef" transform="scale(0.045)"
	xlink:href="#utclef"/>
</defs>
<use x="23.11" y="120.01" xlink:href="#tclef"/>
<defs>
<path id="uflat" fill="currentColor" d="
	m100 -746
	h32
	v734
	l-32 4
	m32 -332
	c46 -72 152 -90 208 -20
	c100 110 -120 326 -208 348
	m0 -28
	c54 0 200 -206 130 -290
	c-50 -60 -130 -4 -130 34"/>
<use id="ft0" transform="translate(-3.5,3.5) scale(0.018)"
	xlink:href="#uflat"/>
</defs>
<use x="38.11" y="108.01" xlink:href="#ft0"/>
<g font-family="serif" font-size="16" font-weight="bold" font-style="normal"
	transform="translate(54.11,120.01) scale(1.2,1)">
	<text y="-1" text-anchor="middle">4</text>
	<text y="-13" text-anchor="middle">3</text>
</g>
<defs>
<rect id="r2" fill="currentColor"
	x="-3.5" y="-3" width="7" height="3"/>
</defs>
<use x="73.61" y="108.01" xlink:href="#r2"/>
<path fill="currentColor"
	d="M118.71 102.61l20.20 -4.80v3.20l-20.20 4.80"/>
<defs>
<path id="hl" stroke="currentColor" d="m-6 0h12"/>
</defs>
<use x="115.51" y="126.01" xlink:href="#hl"/>
<use x="115.51" y="126.01" xlink:href="#hd"/>
<path d="M119.01 126.01v-22.50" stroke="currentColor" fill="none"/>
<use x="135.01" y="117.01" xlink:href="#hd"/>
<path d="M138.51 117.01v-18.20" stroke="currentColor" fill="none"/>
<defs>
<path id="Hd" fill="currentColor" d="m3 -1.6
	c-1 -1.8 -7 1.4 -6 3.2
	c1 1.8 7 -1.4 6 -3.2
	m0.5 -0.3
	c2 3.8 -5 7.6 -7 3.8
	c-2 -3.8 5 -7.6 7 -3.8"/>
</defs>
<use x="179.81" y="117.01" xlink:href="#Hd"/>
<path d="M183.31 117.01v-20.00" stroke="currentColor" fill="none"/>
<path fill="currentColor"
	d="M228.01 91.71l20.50 3.90v3.20l-20.50 -3.90"/>
<use x="224.91" y="111.01" xlink:href="#hd"/>
<path d="M228.41 111.01v-18.20" stroke="currentColor" fill="none"/>
<use x="244.71" y="117.01" xlink:href="#hd"/>
<path d="M248.21 117.01v-20.50" stroke="currentColor" fill="none"/>
<use x="286.81" y="111.01" xlink:href="#Hd"/>
<path d="M290.31 111.01v-20.00" stroke="currentColor" fill="none"/>
<use x="332.81" y="114.01" xlink:href="#hd"/>
<path d="M336.31 114.01v-20.00" stroke="currentColor" fill="none"/>
<use x="381.61" y="117.01" xlink:href="#Hd"/>
<path d="M385.11 117.01v-20.00" stroke="currentColor" fill="none"/>
<use x="427.01" y="123.01" xlink:href="#hd"/>
<path d="M430.51 123.01v-20.00" stroke="currentColor" fill="none"/>
<use x="475.71" y="126.01" xlink:href="#hl"/>
<use x="475.71" y="126.01" xlink:href="#Hd"/>
<path d="M479.21 126.01v-20.00" stroke="currentColor" fill="none"/>
<path fill="currentColor"
	d="M524.61 102.61l20.20 -4.80v3.20l-20.20 4.80"/>
<use x="521.41" y="126.01" xlink:href="#hl"/>
<use x="521.41" y="126.01" xlink:href="#hd"/>
<path d="M524.91 126.01v-22.50" stroke="currentColor" fill="none"/>
<use x="540.91" y="117.01" xlink:href="#hd"/>
<path d="M544.41 117.01v-18.20" stroke="currentColor" fill="none"/>
<defs>
<path id="ubclef" fill="currentColor" d="m-200 -87
	c124 -35 222 -78 254 -236
	c43 -228 -167 -246 -192 -103
	c59 -80 157 22 92 78
	c-62 47 -115 -22 -106 -88
	c21 -141 270 -136 274 52
	c-1 175 -106 264 -322 297
	m357 -250
	c0 -36 51 -34 51 0
	c0 37 -51 36 -51 0
	m-2 -129
	c0 -36 51 -34 51 0
	c0 38 -51 37 -51 0"/>
<use id="bclef" transform="scale(0.045)"
	xlink:href="#ubclef"/>
</defs>
<use x="23.11" y="185.01" xlink:href="#bclef"/>
<use x="38.11" y="179.01" xlink:href="#ft0"/>
<g font-family="serif" font-size="16" font-weight="bold" font-style="normal"
	transform="translate(54.11,185.01) scale(1.2,1)">
	<text y="-1" text-anchor="middle">4</text>
	<text y="-13" text-anchor="middle">3</text>
</g>
<defs>
<rect id="r1" fill="currentColor"
	x="-3.5" y="-6" width="7" height="3"/>
</defs>
<use x="106.91" y="173.01" xlink:href="#r1"/>
<use x="179.81" y="188.01" xlink:href="#Hd"/>
<circle fill="currentColor" cx="188.81" cy="188.01" r="1.2"/>
<path d="M183.31 188.01v-20.00" stroke="currentColor" fill="none"/>
<use x="286.81" y="167.01" xlink:href="#Hd"/>
<circle fill="currentColor" cx="295.81" cy="164.01" r="1.2"/>
<path d="M283.31 167.01v20.00" stroke="currentColor" fill="none"/>
<use x="381.61" y="179.01" xlink:href="#Hd"/>
<circle fill="currentColor" cx="390.61" cy="176.01" r="1.2"/>
<path d="M385.11 179.01v-20.00" stroke="currentColor" fill="none"/>
<use x="475.71" y="167.01" xlink:href="#Hd"/>
<circle fill="currentColor" cx="484.71" cy="164.01" r="1.2"/>
<path d="M472.21 167.01v20.00" stroke="currentColor" fill="none"/>
<text font-family="Bookman" font-size="8" font-weight="normal" font-style="normal"
	x="112.51" y="93.01">1</text>
<text font-family="Bookman" font-size="8" font-weight="normal" font-style="normal"
	x="132.01" y="93.01">3</text>
<text font-family="Bookman" font-size="8" font-weight="normal" font-style="normal"
	x="176.81" y="158.01">1</text>
<text font-family="Bookman" font-size="8" font-weight="normal" font-style="normal"
	x="283.81" y="158.01">5</text>
<text font-family="Bookman" font-size="8" font-weight="normal" font-style="normal"
	x="378.61" y="154.01">3</text>
<text font-family="Bookman" font-size="8" font-weight="normal" font-style="normal"
	x="424.01" y="93.01">2</text>
<text font-family="Bookman" font-size="8" font-weight="normal" font-style="normal"
	x="472.71" y="158.01">5</text>
<text font-family="Bookman" font-size="8" font-weight="normal" font-style="normal"
	x="537.91" y="93.01">2</text>
<path stroke="currentColor" fill="none"
	d="M11.11 326.01v-94.00"/>
<g transform="translate(11.11,232.01) scale(1,0.94)">
	<use xlink:href="#brace"/>
</g>
<path stroke="currentColor" fill="none"
	d="M159.01 256.01v-24.00"/>
<path stroke="currentColor" fill="none"
	d="M159.01 326.01v-70.00"/>
<path stroke="currentColor" fill="none"
	d="M266.41 256.01v-24.00"/>
<path stroke="currentColor" fill="none"
	d="M266.41 326.01v-70.00"/>
<path stroke="currentColor" fill="none"
	d="M332.71 256.01v-24.00"/>
<path stroke="currentColor" fill="none"
	d="M332.71 326.01v-70.00"/>
<path stroke="currentColor" fill="none"
	d="M441.81 256.01v-24.00"/>
<path stroke="currentColor" fill="none"
	d="M441.81 326.01v-70.00"/>
<path stroke="currentColor" fill="none"
	d="M559.21 256.01v-24.00"/>
<path stroke="currentColor" fill="none"
	d="M559.21 326.01v-70.00"/>
<path stroke="currentColor" fill="none"
	d="M11.11 256.01h548.10m-548.10 -6h548.10m-548.10 -6h548.10m-548.10 -6h548.10m-548.10 -6h548.10"/>
<path stroke="currentColor" fill="none"
	d="M11.11 326.01h548.10m-548.10 -6h548.10m-548.10 -6h548.10m-548.10 -6h548.10m-548.10 -6h548.10"/>
<path fill="currentColor"
	d="M286.61 233.01c8.83 -4.40 50.50 -4.40 59.32 -0.00
	l0.00 -0.26c-10.61 -6.14 -48.72 -6.14 -59.32 0.26"/>
<path fill="currentColor"
	d="M286.61 325.01c8.83 4.40 50.50 4.40 59.32 -0.00
	l0.00 0.26c-10.61 6.14 -48.72 6.14 -59.32 -0.26"/>
</g>
<g transform="scale(0.900)" stroke-width="0.70" font-family="Times" font-size="13.00" font-weight="bold">
<text x="47.61" y="279.81">saved</text>
<text x="109.61" y="279.81">a</text>
<path stroke="currentColor" fill="none" stroke-width="0.8"
	d="M118.71 279.81h25.40"/>
<text x="167.01" y="279.81">wretch</text>
<text x="226.01" y="279.81">like</text>
<text x="274.41" y="279.81">me!</text>
<path stroke="currentColor" fill="none" stroke-width="0.8"
	d="M298.61 279.81h53.30"/>
<text x="393.11" y="279.81">I</text>
<path stroke="currentColor" fill="none" stroke-width="0.8"
	d="M400.61 279.81h26.30"/>
<text x="449.81" y="279.81">once</text>
<text x="503.81" y="279.81">was</text>
<path stroke="currentColor" fill="none" stroke-width="0.8"
	d="M528.01 279.81h16.30"/>
</g>
<g transform="scale(0.900)" stroke-width="0.70" font-family="Helvetica" font-size="12.00">
<text x="279.51" y="219.61">C7</text>
<text x="459.91" y="219.61">F</text>
<use x="23.11" y="256.01" xlink:href="#tclef"/>
<use x="38.11" y="244.01" xlink:href="#ft0"/>
<use x="62.81" y="253.01" xlink:href="#Hd"/>
<path d="M66.31 253.01v-20.00" stroke="currentColor" fill="none"/>
<path fill="currentColor"
	d="M118.01 227.31l24.00 2.50v3.20l-24.00 -2.50"/>
<use x="114.81" y="247.01" xlink:href="#hd"/>
<path d="M118.31 247.01v-18.70" stroke="currentColor" fill="none"/>
<use x="138.11" y="250.01" xlink:href="#hd"/>
<path d="M141.61 250.01v-19.30" stroke="currentColor" fill="none"/>
<use x="184.61" y="247.01" xlink:href="#Hd"/>
<path d="M188.11 247.01v-20.00" stroke="currentColor" fill="none"/>
<use x="237.01" y="241.01" xlink:href="#hd"/>
<path d="M233.51 241.01v20.00" stroke="currentColor" fill="none"/>
<use x="285.61" y="241.01" xlink:href="#Hd"/>
<circle fill="currentColor" cx="294.61" cy="241.01" r="1.2"/>
<path d="M282.11 241.01v20.00" stroke="currentColor" fill="none"/>
<use x="345.91" y="241.01" xlink:href="#Hd"/>
<path d="M342.41 241.01v20.00" stroke="currentColor" fill="none"/>
<path fill="currentColor"
	d="M393.81 266.31l24.00 -4.10v-3.20l-24.00 4.10"/>
<use x="397.61" y="247.01" xlink:href="#hd"/>
<path d="M394.11 247.01v18.20" stroke="currentColor" fill="none"/>
<use x="420.91" y="241.01" xlink:href="#hd"/>
<path d="M417.41 241.01v20.20" stroke="currentColor" fill="none"/>
<use x="462.91" y="241.01" xlink:href="#Hd"/>
<path d="M459.41 241.01v20.00" stroke="currentColor" fill="none"/>
<path fill="currentColor"
	d="M518.21 227.71l24.00 4.10v3.20l-24.00 -4.10"/>
<use x="515.01" y="247.01" xlink:href="#hd"/>
<path d="M518.51 247.01v-18.20" stroke="currentColor" fill="none"/>
<use x="538.31" y="253.01" xlink:href="#hd"/>
<path d="M541.81 253.01v-20.20" stroke="currentColor" fill="none"/>
<use x="23.11" y="326.01" xlink:href="#bclef"/>
<use x="38.11" y="320.01" xlink:href="#ft0"/>
<use x="62.81" y="329.01" xlink:href="#Hd"/>
<circle fill="currentColor" cx="72.81" cy="329.01" r="1.2"/>
<path d="M66.31 329.01v-20.00" stroke="currentColor" fill="none"/>
<use x="184.61" y="308.01" xlink:href="#Hd"/>
<circle fill="currentColor" cx="193.61" cy="305.01" r="1.2"/>
<path d="M181.11 308.01v20.00" stroke="currentColor" fill="none"/>
<use x="285.61" y="317.01" xlink:href="#Hd"/>
<circle fill="currentColor" cx="294.61" cy="317.01" r="1.2"/>
<path d="M289.11 317.01v-20.00" stroke="currentColor" fill="none"/>
<use x="345.91" y="317.01" xlink:href="#Hd"/>
<circle fill="currentColor" cx="354.91" cy="317.01" r="1.2"/>
<path d="M349.41 317.01v-20.00" stroke="currentColor" fill="none"/>
<use x="462.91" y="329.01" xlink:href="#Hd"/>
<circle fill="currentColor" cx="471.91" cy="329.01" r="1.2"/>
<path d="M466.41 329.01v-20.00" stroke="currentColor" fill="none"/>
<text font-family="Bookman" font-size="8" font-weight="normal" font-style="normal"
	x="59.81" y="228.01">1</text>
<text font-family="Bookman" font-size="8" font-weight="normal" font-style="normal"
	x="59.81" y="299.01">1</text>
<text font-family="Bookman" font-size="8" font-weight="normal" font-style="normal"
	x="181.61" y="299.01">5</text>
<text font-family="Bookman" font-size="8" font-weight="normal" font-style="normal"
	x="282.61" y="292.01">4</text>
<text font-family="Bookman" font-size="8" font-weight="normal" font-style="normal"
	x="459.91" y="299.01">1</text>
<path stroke="currentColor" fill="none"
	d="M11.11 472.01v-89.00"/>
<g transform="translate(11.11,383.01) scale(1,0.89)">
	<use xlink:href="#brace"/>
</g>
<path stroke="currentColor" fill="none"
	d="M201.11 407.01v-24.00"/>
<path stroke="currentColor" fill="none"
	d="M201.11 472.01v-65.00"/>
<path stroke="currentColor" fill="none"
	d="M365.21 407.01v-24.00"/>
<path stroke="currentColor" fill="none"
	d="M365.21 472.01v-65.00"/>
<path stroke="currentColor" fill="none"
	d="M559.21 407.01v-24.00"/>
<path stroke="currentColor" fill="none"
	d="M559.21 472.01v-65.00"/>
<path stroke="currentColor" fill="none"
	d="M11.11 407.01h548.10m-548.10 -6h548.10m-548.10 -6h548.10m-548.10 -6h548.10m-548.10 -6h548.10"/>
<path stroke="currentColor" fill="none"
	d="M11.11 472.01h548.10m-548.10 -6h548.10m-548.10 -6h548.10m-548.10 -6h548.10m-548.10 -6h548.10"/>
</g>
<g transform="scale(0.900)" stroke-width="0.70" font-family="Times" font-size="13.00" font-weight="bold">
<text x="47.61" y="428.81">lost,</text>
<text x="140.31" y="428.81">but</text>
<text x="211.61" y="428.81">now</text>
<text x="303.51" y="428.81">I&apos;m</text>
<text x="375.11" y="428.81">found,</text>
<text x="469.91" y="428.81">Was</text>
<path stroke="currentColor" fill="none" stroke-width="0.8"
	d="M497.21 428.81h31.90"/>
</g>
<g transform="scale(0.900)" stroke-width="0.70" font-family="Helvetica" font-size="12.00">
<text x="54.01" y="360.61">F7</text>
<text x="217.81" y="360.61">B♭</text>
<text x="389.01" y="360.61">F</text>
<use x="23.11" y="407.01" xlink:href="#tclef"/>
<use x="38.11" y="395.01" xlink:href="#ft0"/>
<use x="59.61" y="398.01" xlink:href="#Hd"/>
<path d="M63.11 398.01v-20.00" stroke="currentColor" fill="none"/>
<use x="150.01" y="401.01" xlink:href="#hd"/>
<path d="M153.51 401.01v-20.00" stroke="currentColor" fill="none"/>
<use x="223.71" y="404.01" xlink:href="#Hd"/>
<path d="M227.21 404.01v-20.00" stroke="currentColor" fill="none"/>
<use x="314.11" y="410.01" xlink:href="#hd"/>
<path d="M317.61 410.01v-20.00" stroke="currentColor" fill="none"/>
<use x="392.01" y="413.01" xlink:href="#hl"/>
<use x="392.01" y="413.01" xlink:href="#Hd"/>
<path d="M395.51 413.01v-20.00" stroke="currentColor" fill="none"/>
<path fill="currentColor"
	d="M485.51 391.11l41.40 -6.30v3.20l-41.40 6.30"/>
<use x="482.41" y="413.01" xlink:href="#hl"/>
<use x="482.41" y="413.01" xlink:href="#hd"/>
<path d="M485.91 413.01v-21.00" stroke="currentColor" fill="none"/>
<use x="523.01" y="404.01" xlink:href="#hd"/>
<path d="M526.51 404.01v-18.20" stroke="currentColor" fill="none"/>
<use x="23.11" y="472.01" xlink:href="#bclef"/>
<use x="38.11" y="466.01" xlink:href="#ft0"/>
<use x="59.61" y="454.01" xlink:href="#Hd"/>
<circle fill="currentColor" cx="69.61" cy="451.01" r="1.2"/>
<path d="M56.11 454.01v20.00" stroke="currentColor" fill="none"/>
<use x="223.71" y="466.01" xlink:href="#Hd"/>
<circle fill="currentColor" cx="232.71" cy="463.01" r="1.2"/>
<path d="M227.21 466.01v-20.00" stroke="currentColor" fill="none"/>
<use x="392.01" y="475.01" xlink:href="#Hd"/>
<circle fill="currentColor" cx="401.01" cy="475.01" r="1.2"/>
<path d="M395.51 475.01v-20.00" stroke="currentColor" fill="none"/>
<text font-family="Bookman" font-size="8" font-weight="normal" font-style="normal"
	x="56.61" y="373.01">5</text>
<text font-family="Bookman" font-size="8" font-weight="normal" font-style="normal"
	x="56.61" y="445.01">5</text>
<text font-family="Bookman" font-size="8" font-weight="normal" font-style="normal"
	x="220.71" y="441.01">3</text>
<text font-family="Bookman" font-size="8" font-weight="normal" font-style="normal"
	x="311.11" y="380.01">2</text>
<text font-family="Bookman" font-size="8" font-weight="normal" font-style="normal"
	x="389.01" y="445.01">1</text>
<text font-family="Bookman" font-size="8" font-weight="normal" font-style="normal"
	x="520.01" y="380.01">3</text>
<path stroke="currentColor" fill="none"
	d="M11.11 613.01v-90.00"/>
<g transform="translate(11.11,523.01) scale(1,0.90)">
	<use xlink:href="#brace"/>
</g>
<path stroke="currentColor" fill="none"
	d="M158.41 547.01v-24.00"/>
<path stroke="currentColor" fill="none"
	d="M158.41 613.01v-66.00"/>
<path stroke="currentColor" fill="none"
	d="M258.71 547.01v-24.00"/>
<path stroke="currentColor" fill="none"
	d="M258.71 613.01v-66.00"/>
<path stroke="currentColor" fill="none"
	d="M330.91 547.01v-24.00"/>
<path stroke="currentColor" fill="none"
	d="M330.91 613.01v-66.00"/>
<path stroke="currentColor" fill="none" stroke-width="3"
	d="M437.51 547.01v-24.00"/>
<path stroke="currentColor" fill="none"
	d="M433.01 547.01v-24.00"/>
<use x="429.01" y="547.01" xlink:href="#rdots"/>
<path stroke="currentColor" fill="none" stroke-width="3"
	d="M437.51 613.01v-66.00"/>
<path stroke="currentColor" fill="none"
	d="M433.01 613.01v-66.00"/>
<use x="429.01" y="613.01" xlink:href="#rdots"/>
<path stroke="currentColor" fill="none"
	d="M505.11 547.01v-24.00"/>
<path stroke="currentColor" fill="none"
	d="M505.11 613.01v-66.00"/>
<path stroke="currentColor" fill="none" stroke-width="3"
	d="M557.71 547.01v-24.00"/>
<path stroke="currentColor" fill="none"
	d="M553.21 547.01v-24.00"/>
<path stroke="currentColor" fill="none" stroke-width="3"
	d="M557.71 613.01v-66.00"/>
<path stroke="currentColor" fill="none"
	d="M553.21 613.01v-66.00"/>
<path stroke="currentColor" fill="none"
	d="M11.11 547.01h548.10m-548.10 -6h548.10m-548.10 -6h548.10m-548.10 -6h548.10m-548.10 -6h548.10"/>
<path stroke="currentColor" fill="none"
	d="M11.11 613.01h548.10m-548.10 -6h548.10m-548.10 -6h548.10m-548.10 -6h548.10m-548.10 -6h548.10"/>
<path fill="currentColor"
	d="M285.31 552.01c8.75 4.39 49.97 4.39 58.73 -0.00
	l0.00 0.26c-10.52 6.13 -48.21 6.13 -58.73 -0.26"/>
<path fill="currentColor"
	d="M459.51 552.01c8.75 4.39 49.97 4.39 58.73 -0.00
	l0.00 0.26c-10.52 6.13 -48.21 6.13 -58.73 -0.26"/>
<path fill="currentColor"
	d="M285.31 624.01c8.75 4.39 49.97 4.39 58.73 -0.00
	l0.00 0.26c-10.52 6.13 -48.21 6.13 -58.73 -0.26"/>
<path fill="currentColor"
	d="M459.51 624.01c8.75 4.39 49.97 4.39 58.73 -0.00
	l0.00 0.26c-10.52 6.13 -48.21 6.13 -58.73 -0.26"/>
</g>
<g transform="scale(0.900)" stroke-width="0.70" font-family="Times" font-size="13.00" font-weight="bold">
<text x="47.61" y="566.81">blind,</text>
<text x="104.91" y="566.81">but</text>
<path stroke="currentColor" fill="none" stroke-width="0.8"
	d="M125.41 566.81h18.30"/>
<text x="166.41" y="566.81">now</text>
<text x="225.31" y="566.81">I</text>
<text x="273.21" y="566.81">see.</text>
<path stroke="currentColor" fill="none" stroke-width="0.8"
	d="M297.11 566.81h52.90"/>
</g>
<g transform="scale(0.900)" stroke-width="0.70" font-family="Helvetica" font-size="12.00">
<text x="172.31" y="508.61">C7</text>
<text x="281.41" y="508.61">F</text>
<text x="455.61" y="508.61">F</text>
</g>
<g transform="scale(0.900)" stroke-width="0.70" font-family="Times" font-size="13.00">
<text x="262.71" y="508.41">1</text>
<path stroke="currentColor" fill="none"
	d="M258.71 497.01v20M258.71 497.01h172.30v20"/>
<text x="443.01" y="508.41">2</text>
<path stroke="currentColor" fill="none"
	d="M439.01 497.01v20M439.01 497.01h120.20v20"/>
<use x="23.11" y="547.01" xlink:href="#tclef"/>
<use x="38.11" y="535.01" xlink:href="#ft0"/>
<use x="62.91" y="544.01" xlink:href="#Hd"/>
<path d="M66.41 544.01v-20.00" stroke="currentColor" fill="none"/>
<path fill="currentColor"
	d="M117.81 518.71l23.70 4.10v3.20l-23.70 -4.10"/>
<use x="114.61" y="538.01" xlink:href="#hd"/>
<path d="M118.11 538.01v-18.20" stroke="currentColor" fill="none"/>
<use x="137.71" y="544.01" xlink:href="#hd"/>
<path d="M141.21 544.01v-20.30" stroke="currentColor" fill="none"/>
<use x="178.51" y="538.01" xlink:href="#Hd"/>
<path d="M182.01 538.01v-20.00" stroke="currentColor" fill="none"/>
<use x="229.81" y="541.01" xlink:href="#hd"/>
<path d="M233.31 541.01v-20.00" stroke="currentColor" fill="none"/>
<use x="284.31" y="544.01" xlink:href="#Hd"/>
<circle fill="currentColor" cx="293.31" cy="544.01" r="1.2"/>
<path d="M287.81 544.01v-20.00" stroke="currentColor" fill="none"/>
<use x="344.01" y="544.01" xlink:href="#Hd"/>
<path d="M347.51 544.01v-20.00" stroke="currentColor" fill="none"/>
<path fill="currentColor"
	d="M398.11 529.91l23.70 -5.20v3.20l-23.70 5.20"/>
<use x="395.01" y="553.01" xlink:href="#hl"/>
<use x="395.01" y="553.01" xlink:href="#hd"/>
<path d="M398.51 553.01v-22.10" stroke="currentColor" fill="none"/>
<use x="418.01" y="544.01" xlink:href="#hd"/>
<path d="M421.51 544.01v-18.20" stroke="currentColor" fill="none"/>
<use x="458.51" y="544.01" xlink:href="#Hd"/>
<circle fill="currentColor" cx="467.51" cy="544.01" r="1.2"/>
<path d="M462.01 544.01v-20.00" stroke="currentColor" fill="none"/>
<use x="518.21" y="544.01" xlink:href="#Hd"/>
<path d="M521.71 544.01v-20.00" stroke="currentColor" fill="none"/>
<use x="23.11" y="613.01" xlink:href="#bclef"/>
<use x="38.11" y="607.01" xlink:href="#ft0"/>
<use x="62.91" y="595.01" xlink:href="#Hd"/>
<circle fill="currentColor" cx="72.91" cy="592.01" r="1.2"/>
<path d="M59.41 595.01v20.00" stroke="currentColor" fill="none"/>
<use x="178.51" y="604.01" xlink:href="#Hd"/>
<circle fill="currentColor" cx="187.51" cy="604.01" r="1.2"/>
<path d="M182.01 604.01v-20.00" stroke="currentColor" fill="none"/>
<use x="284.31" y="616.01" xlink:href="#Hd"/>
<circle fill="currentColor" cx="293.31" cy="616.01" r="1.2"/>
<path d="M287.81 616.01v-20.00" stroke="currentColor" fill="none"/>
<use x="344.01" y="616.01" xlink:href="#Hd"/>
<circle fill="currentColor" cx="353.01" cy="616.01" r="1.2"/>
<path d="M347.51 616.01v-20.00" stroke="currentColor" fill="none"/>
<use x="458.51" y="616.01" xlink:href="#Hd"/>
<circle fill="currentColor" cx="467.51" cy="616.01" r="1.2"/>
<path d="M462.01 616.01v-20.00" stroke="currentColor" fill="none"/>
<use x="518.21" y="616.01" xlink:href="#Hd"/>
<path d="M521.71 616.01v-20.00" stroke="currentColor" fill="none"/>
<text font-family="Bookman" font-size="8" font-weight="normal" font-style="normal"
	x="59.91" y="586.01">5</text>
<text font-family="Bookman" font-size="8" font-weight="normal" font-style="normal"
	x="175.51" y="579.01">3</text>
<text font-family="Bookman" font-size="8" font-weight="normal" font-style="normal"
	x="281.31" y="586.01">1</text>
<text font-family="Bookman" font-size="8" font-weight="normal" font-style="normal"
	x="392.01" y="520.01">1</text>
<text font-family="Bookman" font-size="8" font-weight="normal" font-style="normal"
	x="415.01" y="520.01">3</text>
<text font-family="Bookman" font-size="8" font-weight="normal" font-style="normal"
	x="455.51" y="586.01">1</text>
</g>
</svg>
