<?xml version="1.0" standalone="no"?>
<!DOCTYPE svg PUBLIC "-//W3C//DTD SVG 1.1//EN"
	"http://www.w3.org/Graphics/SVG/1.1/DTD/svg11.dtd">
<svg xmlns="http://www.w3.org/2000/svg" version="1.1"
	xmlns:xlink="http://www.w3.org/1999/xlink"
	xml:space='preserve' color="black"
	width="7.38in" height="3.84in" viewBox="0 0 531 276">
<title>BeginnerCourse/StartWithMiddleC.abc (1) tune 1</title>
<!-- Creator: abcm2ps-7.8.9 -->
<!-- CreationDate: May 18, 2018 14:42 -->
<!-- CommandLine: -g -s 0.9 -c BeginnerCourse/StartWithMiddleC.abc -O PianoBoosterMusic/BeginnerCourse/StartWithMiddleC.svg -->
<g transform="scale(0.900)" stroke-width="0.70" font-family="Times" font-size="20.00">
<text x="295.11" y="21.67" text-anchor="middle">Start with Middle C</text>
<path stroke="currentColor" fill="none"
	d="M11.11 156.01v-82.00"/>
<path stroke="currentColor" fill="none"
	d="M60.11 98.01v-24.00"/>
<path stroke="currentColor" fill="none"
	d="M60.11 156.01v-58.00"/>
<path stroke="currentColor" fill="none"
	d="M270.21 98.01v-24.00"/>
<path stroke="currentColor" fill="none"
	d="M270.21 156.01v-58.00"/>
<path stroke="currentColor" fill="none"
	d="M369.01 98.01v-24.00"/>
<path stroke="currentColor" fill="none"
	d="M369.01 156.01v-58.00"/>
<path stroke="currentColor" fill="none"
	d="M579.11 98.01v-24.00"/>
<path stroke="currentColor" fill="none"
	d="M579.11 156.01v-58.00"/>
<path stroke="currentColor" fill="none"
	d="M11.11 98.01h568.00m-568.00 -6h568.00m-568.00 -6h568.00m-568.00 -6h568.00m-568.00 -6h568.00"/>
<path stroke="currentColor" fill="none"
	d="M11.11 156.01h568.00m-568.00 -6h568.00m-568.00 -6h568.00m-568.00 -6h568.00m-568.00 -6h568.00"/>
<defs>
<path id="utclef" fill="currentColor" d="m-50 -90
	c-72 -41 -72 -158 52 -188
	c150 -10 220 188 90 256
	c-114 52 -275 0 -293 -136
	c-15 -181 93 -229 220 -334
	c88 -87 79 -133 62 -210
	c-51 33 -94 105 -89 186
	c17 267 36 374 49 574
	c6 96 -19 134 -77 135
	c-80 1 -126 -93 -61 -133
	c85 -41 133 101 31 105
	c23 17 92 37 90 -92
	c-10 -223 -39 -342 -50 -617
	c0 -90 0 -162 96 -232
	c56 72 63 230 22 289
	c-74 106 -257 168 -255 316
	c9 153 148 185 252 133
	c86 -65 29 -192 -80 -176
	c-71 12 -105 67 -59 124"/>
<use id="tclef" transform="scale(0.045)"
	xlink:href="#utclef"/>
</defs>
<use x="23.11" y="98.01" xlink:href="#tclef"/>
<g font-family="serif" font-size="16" font-weight="bold" font-style="normal"
	transform="translate(41.61,98.01) scale(1.2,1)">
	<text y="-1" text-anchor="middle">4</text>
	<text y="-13" text-anchor="middle">4</text>
</g>
<defs>
<path id="hl" stroke="currentColor" d="m-6 0h12"/>
</defs>
<use x="78.01" y="104.01" xlink:href="#hl"/>
<defs>
<ellipse id="hd" rx="4.1" ry="2.9"
	transform="rotate(-20)" fill="currentColor"/>
</defs>
<use x="78.01" y="104.01" xlink:href="#hd"/>
<path d="M81.51 104.01v-20.00" stroke="currentColor" fill="none"/>
<use x="128.61" y="104.01" xlink:href="#hl"/>
<use x="128.61" y="104.01" xlink:href="#hd"/>
<path d="M132.11 104.01v-20.00" stroke="currentColor" fill="none"/>
<use x="179.11" y="104.01" xlink:href="#hl"/>
<use x="179.11" y="104.01" xlink:href="#hd"/>
<path d="M182.61 104.01v-20.00" stroke="currentColor" fill="none"/>
<use x="229.71" y="104.01" xlink:href="#hl"/>
<use x="229.71" y="104.01" xlink:href="#hd"/>
<path d="M233.21 104.01v-20.00" stroke="currentColor" fill="none"/>
<defs>
<rect id="r1" fill="currentColor"
	x="-3.5" y="-6" width="7" height="3"/>
</defs>
<use x="319.61" y="86.01" xlink:href="#r1"/>
<use x="386.91" y="104.01" xlink:href="#hl"/>
<use x="386.91" y="104.01" xlink:href="#hd"/>
<path d="M390.41 104.01v-20.00" stroke="currentColor" fill="none"/>
<use x="437.51" y="104.01" xlink:href="#hl"/>
<use x="437.51" y="104.01" xlink:href="#hd"/>
<path d="M441.01 104.01v-20.00" stroke="currentColor" fill="none"/>
<use x="488.11" y="104.01" xlink:href="#hl"/>
<use x="488.11" y="104.01" xlink:href="#hd"/>
<path d="M491.61 104.01v-20.00" stroke="currentColor" fill="none"/>
<use x="538.61" y="104.01" xlink:href="#hl"/>
<use x="538.61" y="104.01" xlink:href="#hd"/>
<path d="M542.11 104.01v-20.00" stroke="currentColor" fill="none"/>
<defs>
<path id="ubclef" fill="currentColor" d="m-200 -87
	c124 -35 222 -78 254 -236
	c43 -228 -167 -246 -192 -103
	c59 -80 157 22 92 78
	c-62 47 -115 -22 -106 -88
	c21 -141 270 -136 274 52
	c-1 175 -106 264 -322 297
	m357 -250
	c0 -36 51 -34 51 0
	c0 37 -51 36 -51 0
	m-2 -129
	c0 -36 51 -34 51 0
	c0 38 -51 37 -51 0"/>
<use id="bclef" transform="scale(0.045)"
	xlink:href="#ubclef"/>
</defs>
<use x="23.11" y="156.01" xlink:href="#bclef"/>
<g font-family="serif" font-size="16" font-weight="bold" font-style="normal"
	transform="translate(41.61,156.01) scale(1.2,1)">
	<text y="-1" text-anchor="middle">4</text>
	<text y="-13" text-anchor="middle">4</text>
</g>
<use x="165.11" y="144.01" xlink:href="#r1"/>
<use x="319.61" y="144.01" xlink:href="#r1"/>
<use x="474.11" y="144.01" xlink:href="#r1"/>
<path stroke="currentColor" fill="none"
	d="M11.11 284.01v-82.00"/>
<path stroke="currentColor" fill="none"
	d="M101.51 226.01v-24.00"/>
<path stroke="currentColor" fill="none"
	d="M101.51 284.01v-58.00"/>
<path stroke="currentColor" fill="none"
	d="M240.71 226.01v-24.00"/>
<path stroke="currentColor" fill="none"
	d="M240.71 284.01v-58.00"/>
<path stroke="currentColor" fill="none"
	d="M307.11 226.01v-24.00"/>
<path stroke="currentColor" fill="none"
	d="M307.11 284.01v-58.00"/>
<path stroke="currentColor" fill="none"
	d="M446.31 226.01v-24.00"/>
<path stroke="currentColor" fill="none"
	d="M446.31 284.01v-58.00"/>
<path stroke="currentColor" fill="none"
	d="M512.71 226.01v-24.00"/>
<path stroke="currentColor" fill="none"
	d="M512.71 284.01v-58.00"/>
<path stroke="currentColor" fill="none"
	d="M579.11 226.01v-24.00"/>
<path stroke="currentColor" fill="none"
	d="M579.11 284.01v-58.00"/>
<path stroke="currentColor" fill="none"
	d="M11.11 226.01h568.00m-568.00 -6h568.00m-568.00 -6h568.00m-568.00 -6h568.00m-568.00 -6h568.00"/>
<path stroke="currentColor" fill="none"
	d="M11.11 284.01h568.00m-568.00 -6h568.00m-568.00 -6h568.00m-568.00 -6h568.00m-568.00 -6h568.00"/>
<use x="23.11" y="226.01" xlink:href="#tclef"/>
<use x="67.31" y="214.01" xlink:href="#r1"/>
<use x="171.11" y="214.01" xlink:href="#r1"/>
<use x="273.91" y="214.01" xlink:href="#r1"/>
<use x="376.71" y="214.01" xlink:href="#r1"/>
<use x="479.51" y="214.01" xlink:href="#r1"/>
<defs>
<path id="hl1" stroke="currentColor" d="m-7 0h14"/>
</defs>
<use x="527.71" y="232.01" xlink:href="#hl1"/>
<defs>
<path id="HD" fill="currentColor" d="m-2.7 -1.4
	c1.5 -2.8 6.9 0 5.3 2.7
	c-1.5 2.8 -6.9 0 -5.3 -2.7
	m8.3 1.4
	c0 -1.5 -2.2 -3 -5.6 -3
	c-3.4 0 -5.6 1.5 -5.6 3
	c0 1.5 2.2 3 5.6 3
	c3.4 0 5.6 -1.5 5.6 -3"/>
</defs>
<use x="527.71" y="232.01" xlink:href="#HD"/>
<use x="23.11" y="284.01" xlink:href="#bclef"/>
<use x="67.31" y="272.01" xlink:href="#r1"/>
<use x="115.51" y="254.01" xlink:href="#hl"/>
<use x="115.51" y="254.01" xlink:href="#hd"/>
<path d="M112.01 254.01v20.00" stroke="currentColor" fill="none"/>
<use x="148.41" y="254.01" xlink:href="#hl"/>
<use x="148.41" y="254.01" xlink:href="#hd"/>
<path d="M144.91 254.01v20.00" stroke="currentColor" fill="none"/>
<use x="181.41" y="254.01" xlink:href="#hl"/>
<use x="181.41" y="254.01" xlink:href="#hd"/>
<path d="M177.91 254.01v20.00" stroke="currentColor" fill="none"/>
<use x="214.31" y="254.01" xlink:href="#hl"/>
<use x="214.31" y="254.01" xlink:href="#hd"/>
<path d="M210.81 254.01v20.00" stroke="currentColor" fill="none"/>
<use x="273.91" y="272.01" xlink:href="#r1"/>
<use x="321.11" y="254.01" xlink:href="#hl"/>
<use x="321.11" y="254.01" xlink:href="#hd"/>
<path d="M317.61 254.01v20.00" stroke="currentColor" fill="none"/>
<use x="354.01" y="254.01" xlink:href="#hl"/>
<use x="354.01" y="254.01" xlink:href="#hd"/>
<path d="M350.51 254.01v20.00" stroke="currentColor" fill="none"/>
<use x="386.91" y="254.01" xlink:href="#hl"/>
<use x="386.91" y="254.01" xlink:href="#hd"/>
<path d="M383.41 254.01v20.00" stroke="currentColor" fill="none"/>
<use x="419.91" y="254.01" xlink:href="#hl"/>
<use x="419.91" y="254.01" xlink:href="#hd"/>
<path d="M416.41 254.01v20.00" stroke="currentColor" fill="none"/>
<use x="479.51" y="272.01" xlink:href="#r1"/>
<use x="545.91" y="272.01" xlink:href="#r1"/>
</g>
</svg>
