<?xml version="1.0" standalone="no"?>
<!DOCTYPE svg PUBLIC "-//W3C//DTD SVG 1.1//EN"
	"http://www.w3.org/Graphics/SVG/1.1/DTD/svg11.dtd">
<svg xmlns="http://www.w3.org/2000/svg" version="1.1"
	xmlns:xlink="http://www.w3.org/1999/xlink"
	xml:space='preserve' color="black"
	width="7.13in" height="3.26in" viewBox="0 0 513 235">
<title>BeginnerCourse/04-ClairDeLaLune.abc (4) tune 1</title>
<!-- Creator: abcm2ps-7.8.14 -->
<!-- CreationDate: Jun 17, 2019 08:15 -->
<!-- CommandLine: -g -s 0.9 -c BeginnerCourse/04-ClairDeLaLune.abc -O ../../doc/courses/BeginnerCourse/04-ClairDeLaLune.svg -->
<g transform="scale(0.900)" stroke-width="0.70" font-family="Times" font-size="20.00">
<text x="285.11" y="21.67" text-anchor="middle">Clair De La Lune</text>
<path stroke="currentColor" fill="none"
	d="M169.21 98.01v-24.00"/>
<path stroke="currentColor" fill="none"
	d="M255.31 98.01v-24.00"/>
<path stroke="currentColor" fill="none"
	d="M377.31 98.01v-24.00"/>
<path stroke="currentColor" fill="none"
	d="M437.11 98.01v-24.00"/>
<path stroke="currentColor" fill="none"
	d="M559.21 98.01v-24.00"/>
<path stroke="currentColor" fill="none"
	d="M11.11 98.01h548.10m-548.10 -6h548.10m-548.10 -6h548.10m-548.10 -6h548.10m-548.10 -6h548.10"/>
<defs>
<path id="utclef" fill="currentColor" d="m-50 -90
	c-72 -41 -72 -158 52 -188
	c150 -10 220 188 90 256
	c-114 52 -275 0 -293 -136
	c-15 -181 93 -229 220 -334
	c88 -87 79 -133 62 -210
	c-51 33 -94 105 -89 186
	c17 267 36 374 49 574
	c6 96 -19 134 -77 135
	c-80 1 -126 -93 -61 -133
	c85 -41 133 101 31 105
	c23 17 92 37 90 -92
	c-10 -223 -39 -342 -50 -617
	c0 -90 0 -162 96 -232
	c56 72 63 230 22 289
	c-74 106 -257 168 -255 316
	c9 153 148 185 252 133
	c86 -65 29 -192 -80 -176
	c-71 12 -105 67 -59 124"/>
<use id="tclef" transform="scale(0.045)"
	xlink:href="#utclef"/>
</defs>
<use x="23.11" y="98.01" xlink:href="#tclef"/>
<g font-family="serif" font-size="16" font-weight="bold" font-style="normal"
	transform="translate(41.61,98.01) scale(1.2,1)">
	<text y="-1" text-anchor="middle">4</text>
	<text y="-13" text-anchor="middle">4</text>
</g>
<defs>
<path id="hl" stroke="currentColor" d="m-6 0h12"/>
</defs>
<use x="59.61" y="104.01" xlink:href="#hl"/>
<defs>
<ellipse id="hd" rx="4.1" ry="2.9"
	transform="rotate(-20)" fill="currentColor"/>
</defs>
<use x="59.61" y="104.01" xlink:href="#hd"/>
<path d="M63.11 104.01v-20.00" stroke="currentColor" fill="none"/>
<use x="88.51" y="104.01" xlink:href="#hl"/>
<use x="88.51" y="104.01" xlink:href="#hd"/>
<path d="M92.01 104.01v-20.00" stroke="currentColor" fill="none"/>
<use x="117.31" y="104.01" xlink:href="#hl"/>
<use x="117.31" y="104.01" xlink:href="#hd"/>
<path d="M120.81 104.01v-20.00" stroke="currentColor" fill="none"/>
<use x="146.11" y="101.01" xlink:href="#hd"/>
<path d="M149.61 101.01v-20.00" stroke="currentColor" fill="none"/>
<defs>
<path id="Hd" fill="currentColor" d="m3 -1.6
	c-1 -1.8 -7 1.4 -6 3.2
	c1 1.8 7 -1.4 6 -3.2
	m0.5 -0.3
	c2 3.8 -5 7.6 -7 3.8
	c-2 -3.8 5 -7.6 7 -3.8"/>
</defs>
<use x="182.21" y="98.01" xlink:href="#Hd"/>
<path d="M185.71 98.01v-20.00" stroke="currentColor" fill="none"/>
<use x="222.81" y="101.01" xlink:href="#Hd"/>
<path d="M226.31 101.01v-20.00" stroke="currentColor" fill="none"/>
<use x="267.81" y="104.01" xlink:href="#hl"/>
<use x="267.81" y="104.01" xlink:href="#hd"/>
<path d="M271.31 104.01v-20.00" stroke="currentColor" fill="none"/>
<use x="296.61" y="98.01" xlink:href="#hd"/>
<path d="M300.11 98.01v-20.00" stroke="currentColor" fill="none"/>
<use x="325.31" y="101.01" xlink:href="#hd"/>
<path d="M328.81 101.01v-20.00" stroke="currentColor" fill="none"/>
<use x="354.11" y="101.01" xlink:href="#hd"/>
<path d="M357.61 101.01v-20.00" stroke="currentColor" fill="none"/>
<defs>
<path id="hl1" stroke="currentColor" d="m-7 0h14"/>
</defs>
<use x="392.31" y="104.01" xlink:href="#hl1"/>
<defs>
<path id="HD" fill="currentColor" d="m-2.7 -1.4
	c1.5 -2.8 6.9 0 5.3 2.7
	c-1.5 2.8 -6.9 0 -5.3 -2.7
	m8.3 1.4
	c0 -1.5 -2.2 -3 -5.6 -3
	c-3.4 0 -5.6 1.5 -5.6 3
	c0 1.5 2.2 3 5.6 3
	c3.4 0 5.6 -1.5 5.6 -3"/>
</defs>
<use x="392.31" y="104.01" xlink:href="#HD"/>
<use x="449.61" y="104.01" xlink:href="#hl"/>
<use x="449.61" y="104.01" xlink:href="#hd"/>
<path d="M453.11 104.01v-20.00" stroke="currentColor" fill="none"/>
<use x="478.41" y="104.01" xlink:href="#hl"/>
<use x="478.41" y="104.01" xlink:href="#hd"/>
<path d="M481.91 104.01v-20.00" stroke="currentColor" fill="none"/>
<use x="507.31" y="104.01" xlink:href="#hl"/>
<use x="507.31" y="104.01" xlink:href="#hd"/>
<path d="M510.81 104.01v-20.00" stroke="currentColor" fill="none"/>
<use x="536.01" y="101.01" xlink:href="#hd"/>
<path d="M539.51 101.01v-20.00" stroke="currentColor" fill="none"/>
<path stroke="currentColor" fill="none"
	d="M139.71 168.01v-24.00"/>
<path stroke="currentColor" fill="none"
	d="M271.21 168.01v-24.00"/>
<path stroke="currentColor" fill="none"
	d="M335.11 168.01v-24.00"/>
<path stroke="currentColor" fill="none"
	d="M466.61 168.01v-24.00"/>
<path stroke="currentColor" fill="none"
	d="M559.21 168.01v-24.00"/>
<path stroke="currentColor" fill="none"
	d="M11.11 168.01h548.10m-548.10 -6h548.10m-548.10 -6h548.10m-548.10 -6h548.10m-548.10 -6h548.10"/>
<use x="23.11" y="168.01" xlink:href="#tclef"/>
<g font-family="serif" font-size="16" font-weight="bold" font-style="normal"
	transform="translate(41.61,168.01) scale(1.2,1)">
	<text y="-1" text-anchor="middle">4</text>
	<text y="-13" text-anchor="middle">4</text>
</g>
<use x="60.11" y="168.01" xlink:href="#Hd"/>
<path d="M63.61 168.01v-20.00" stroke="currentColor" fill="none"/>
<use x="104.31" y="171.01" xlink:href="#Hd"/>
<path d="M107.81 171.01v-20.00" stroke="currentColor" fill="none"/>
<use x="152.21" y="174.01" xlink:href="#hl"/>
<use x="152.21" y="174.01" xlink:href="#hd"/>
<path d="M155.71 174.01v-20.00" stroke="currentColor" fill="none"/>
<use x="183.51" y="168.01" xlink:href="#hd"/>
<path d="M187.01 168.01v-20.00" stroke="currentColor" fill="none"/>
<use x="214.81" y="171.01" xlink:href="#hd"/>
<path d="M218.31 171.01v-20.00" stroke="currentColor" fill="none"/>
<use x="246.11" y="171.01" xlink:href="#hd"/>
<path d="M249.61 171.01v-20.00" stroke="currentColor" fill="none"/>
<use x="286.21" y="174.01" xlink:href="#hl1"/>
<use x="286.21" y="174.01" xlink:href="#HD"/>
<use x="347.61" y="171.01" xlink:href="#hd"/>
<path d="M351.11 171.01v-20.00" stroke="currentColor" fill="none"/>
<use x="378.91" y="171.01" xlink:href="#hd"/>
<path d="M382.41 171.01v-20.00" stroke="currentColor" fill="none"/>
<use x="410.21" y="171.01" xlink:href="#hd"/>
<path d="M413.71 171.01v-20.00" stroke="currentColor" fill="none"/>
<use x="441.51" y="171.01" xlink:href="#hd"/>
<path d="M445.01 171.01v-20.00" stroke="currentColor" fill="none"/>
<use x="479.61" y="168.01" xlink:href="#Hd"/>
<path d="M483.11 168.01v-20.00" stroke="currentColor" fill="none"/>
<use x="523.81" y="168.01" xlink:href="#Hd"/>
<path d="M527.31 168.01v-20.00" stroke="currentColor" fill="none"/>
<path stroke="currentColor" fill="none"
	d="M155.91 238.01v-24.00"/>
<path stroke="currentColor" fill="none"
	d="M210.01 238.01v-24.00"/>
<path stroke="currentColor" fill="none"
	d="M319.21 238.01v-24.00"/>
<path stroke="currentColor" fill="none"
	d="M396.31 238.01v-24.00"/>
<path stroke="currentColor" fill="none"
	d="M505.11 238.01v-24.00"/>
<path stroke="currentColor" fill="none"
	d="M559.21 238.01v-24.00"/>
<path stroke="currentColor" fill="none"
	d="M11.11 238.01h548.10m-548.10 -6h548.10m-548.10 -6h548.10m-548.10 -6h548.10m-548.10 -6h548.10"/>
<use x="23.11" y="238.01" xlink:href="#tclef"/>
<g font-family="serif" font-size="16" font-weight="bold" font-style="normal"
	transform="translate(41.61,238.01) scale(1.2,1)">
	<text y="-1" text-anchor="middle">4</text>
	<text y="-13" text-anchor="middle">4</text>
</g>
<use x="59.61" y="238.01" xlink:href="#hd"/>
<path d="M63.11 238.01v-20.00" stroke="currentColor" fill="none"/>
<use x="84.91" y="238.01" xlink:href="#hd"/>
<path d="M88.41 238.01v-20.00" stroke="currentColor" fill="none"/>
<use x="110.21" y="241.01" xlink:href="#hd"/>
<path d="M113.71 241.01v-20.00" stroke="currentColor" fill="none"/>
<use x="135.51" y="241.01" xlink:href="#hd"/>
<path d="M139.01 241.01v-20.00" stroke="currentColor" fill="none"/>
<use x="170.91" y="244.01" xlink:href="#hl1"/>
<use x="170.91" y="244.01" xlink:href="#HD"/>
<use x="222.51" y="244.01" xlink:href="#hl"/>
<use x="222.51" y="244.01" xlink:href="#hd"/>
<path d="M226.01 244.01v-20.00" stroke="currentColor" fill="none"/>
<use x="248.01" y="244.01" xlink:href="#hl"/>
<use x="248.01" y="244.01" xlink:href="#hd"/>
<path d="M251.51 244.01v-20.00" stroke="currentColor" fill="none"/>
<use x="273.41" y="244.01" xlink:href="#hl"/>
<use x="273.41" y="244.01" xlink:href="#hd"/>
<path d="M276.91 244.01v-20.00" stroke="currentColor" fill="none"/>
<use x="298.71" y="241.01" xlink:href="#hd"/>
<path d="M302.21 241.01v-20.00" stroke="currentColor" fill="none"/>
<use x="332.21" y="238.01" xlink:href="#Hd"/>
<path d="M335.71 238.01v-20.00" stroke="currentColor" fill="none"/>
<use x="367.71" y="241.01" xlink:href="#Hd"/>
<path d="M371.21 241.01v-20.00" stroke="currentColor" fill="none"/>
<use x="408.81" y="244.01" xlink:href="#hl"/>
<use x="408.81" y="244.01" xlink:href="#hd"/>
<path d="M412.31 244.01v-20.00" stroke="currentColor" fill="none"/>
<use x="434.11" y="238.01" xlink:href="#hd"/>
<path d="M437.61 238.01v-20.00" stroke="currentColor" fill="none"/>
<use x="459.31" y="241.01" xlink:href="#hd"/>
<path d="M462.81 241.01v-20.00" stroke="currentColor" fill="none"/>
<use x="484.61" y="241.01" xlink:href="#hd"/>
<path d="M488.11 241.01v-20.00" stroke="currentColor" fill="none"/>
<use x="520.11" y="244.01" xlink:href="#hl1"/>
<use x="520.11" y="244.01" xlink:href="#HD"/>
</g>
</svg>
