<?xml version="1.0" standalone="no"?>
<!DOCTYPE svg PUBLIC "-//W3C//DTD SVG 1.1//EN"
	"http://www.w3.org/Graphics/SVG/1.1/DTD/svg11.dtd">
<svg xmlns="http://www.w3.org/2000/svg" version="1.1"
	xmlns:xlink="http://www.w3.org/1999/xlink"
	xml:space='preserve' color="black"
	width="7.13in" height="5.44in" viewBox="0 0 513 392">
<title>BeginnerCourse/06-DownAndUp.abc (1) tune 1</title>
<!-- Creator: abcm2ps-7.8.14 -->
<!-- CreationDate: Jun 17, 2019 08:15 -->
<!-- CommandLine: -g -s 0.9 -c BeginnerCourse/06-DownAndUp.abc -O ../../doc/courses/BeginnerCourse/06-DownAndUp.svg -->
<g transform="scale(0.900)" stroke-width="0.70" font-family="Times" font-size="20.00">
<text x="285.11" y="21.67" text-anchor="middle">Down and Up</text>
<path stroke="currentColor" fill="none"
	d="M11.11 156.01v-82.00"/>
<path stroke="currentColor" fill="none"
	d="M60.11 98.01v-24.00"/>
<path stroke="currentColor" fill="none"
	d="M60.11 156.01v-58.00"/>
<path stroke="currentColor" fill="none"
	d="M161.71 98.01v-24.00"/>
<path stroke="currentColor" fill="none"
	d="M161.71 156.01v-58.00"/>
<path stroke="currentColor" fill="none"
	d="M233.71 98.01v-24.00"/>
<path stroke="currentColor" fill="none"
	d="M233.71 156.01v-58.00"/>
<path stroke="currentColor" fill="none"
	d="M335.31 98.01v-24.00"/>
<path stroke="currentColor" fill="none"
	d="M335.31 156.01v-58.00"/>
<path stroke="currentColor" fill="none"
	d="M407.41 98.01v-24.00"/>
<path stroke="currentColor" fill="none"
	d="M407.41 156.01v-58.00"/>
<path stroke="currentColor" fill="none"
	d="M457.61 98.01v-24.00"/>
<path stroke="currentColor" fill="none"
	d="M457.61 156.01v-58.00"/>
<path stroke="currentColor" fill="none"
	d="M559.21 98.01v-24.00"/>
<path stroke="currentColor" fill="none"
	d="M559.21 156.01v-58.00"/>
<path stroke="currentColor" fill="none"
	d="M11.11 98.01h548.10m-548.10 -6h548.10m-548.10 -6h548.10m-548.10 -6h548.10m-548.10 -6h548.10"/>
<path stroke="currentColor" fill="none"
	d="M11.11 156.01h548.10m-548.10 -6h548.10m-548.10 -6h548.10m-548.10 -6h548.10m-548.10 -6h548.10"/>
<defs>
<path id="utclef" fill="currentColor" d="m-50 -90
	c-72 -41 -72 -158 52 -188
	c150 -10 220 188 90 256
	c-114 52 -275 0 -293 -136
	c-15 -181 93 -229 220 -334
	c88 -87 79 -133 62 -210
	c-51 33 -94 105 -89 186
	c17 267 36 374 49 574
	c6 96 -19 134 -77 135
	c-80 1 -126 -93 -61 -133
	c85 -41 133 101 31 105
	c23 17 92 37 90 -92
	c-10 -223 -39 -342 -50 -617
	c0 -90 0 -162 96 -232
	c56 72 63 230 22 289
	c-74 106 -257 168 -255 316
	c9 153 148 185 252 133
	c86 -65 29 -192 -80 -176
	c-71 12 -105 67 -59 124"/>
<use id="tclef" transform="scale(0.045)"
	xlink:href="#utclef"/>
</defs>
<use x="23.11" y="98.01" xlink:href="#tclef"/>
<g font-family="serif" font-size="16" font-weight="bold" font-style="normal"
	transform="translate(41.61,98.01) scale(1.2,1)">
	<text y="-1" text-anchor="middle">4</text>
	<text y="-13" text-anchor="middle">4</text>
</g>
<defs>
<rect id="r1" fill="currentColor"
	x="-3.5" y="-6" width="7" height="3"/>
</defs>
<use x="110.91" y="86.01" xlink:href="#r1"/>
<use x="197.71" y="86.01" xlink:href="#r1"/>
<use x="284.51" y="86.01" xlink:href="#r1"/>
<use x="371.31" y="86.01" xlink:href="#r1"/>
<use x="432.51" y="86.01" xlink:href="#r1"/>
<use x="508.41" y="86.01" xlink:href="#r1"/>
<defs>
<path id="ubclef" fill="currentColor" d="m-200 -87
	c124 -35 222 -78 254 -236
	c43 -228 -167 -246 -192 -103
	c59 -80 157 22 92 78
	c-62 47 -115 -22 -106 -88
	c21 -141 270 -136 274 52
	c-1 175 -106 264 -322 297
	m357 -250
	c0 -36 51 -34 51 0
	c0 37 -51 36 -51 0
	m-2 -129
	c0 -36 51 -34 51 0
	c0 38 -51 37 -51 0"/>
<use id="bclef" transform="scale(0.045)"
	xlink:href="#ubclef"/>
</defs>
<use x="23.11" y="156.01" xlink:href="#bclef"/>
<g font-family="serif" font-size="16" font-weight="bold" font-style="normal"
	transform="translate(41.61,156.01) scale(1.2,1)">
	<text y="-1" text-anchor="middle">4</text>
	<text y="-13" text-anchor="middle">4</text>
</g>
<defs>
<path id="hl" stroke="currentColor" d="m-6 0h12"/>
</defs>
<use x="74.11" y="126.01" xlink:href="#hl"/>
<defs>
<ellipse id="hd" rx="4.1" ry="2.9"
	transform="rotate(-20)" fill="currentColor"/>
</defs>
<use x="74.11" y="126.01" xlink:href="#hd"/>
<path d="M70.61 126.01v20.00" stroke="currentColor" fill="none"/>
<use x="97.11" y="129.01" xlink:href="#hd"/>
<path d="M93.61 129.01v20.00" stroke="currentColor" fill="none"/>
<use x="120.01" y="132.01" xlink:href="#hd"/>
<path d="M116.51 132.01v20.00" stroke="currentColor" fill="none"/>
<use x="143.01" y="135.01" xlink:href="#hd"/>
<path d="M139.51 135.01v20.00" stroke="currentColor" fill="none"/>
<defs>
<path id="Hd" fill="currentColor" d="m3 -1.6
	c-1 -1.8 -7 1.4 -6 3.2
	c1 1.8 7 -1.4 6 -3.2
	m0.5 -0.3
	c2 3.8 -5 7.6 -7 3.8
	c-2 -3.8 5 -7.6 7 -3.8"/>
</defs>
<use x="175.71" y="138.01" xlink:href="#Hd"/>
<path d="M172.21 138.01v20.00" stroke="currentColor" fill="none"/>
<use x="207.71" y="138.01" xlink:href="#Hd"/>
<path d="M204.21 138.01v20.00" stroke="currentColor" fill="none"/>
<use x="247.71" y="138.01" xlink:href="#hd"/>
<path d="M244.21 138.01v20.00" stroke="currentColor" fill="none"/>
<use x="270.61" y="135.01" xlink:href="#hd"/>
<path d="M267.11 135.01v20.00" stroke="currentColor" fill="none"/>
<use x="293.61" y="132.01" xlink:href="#hd"/>
<path d="M290.11 132.01v20.00" stroke="currentColor" fill="none"/>
<use x="316.51" y="129.01" xlink:href="#hd"/>
<path d="M313.01 129.01v20.00" stroke="currentColor" fill="none"/>
<use x="349.31" y="126.01" xlink:href="#hl"/>
<use x="349.31" y="126.01" xlink:href="#Hd"/>
<path d="M345.81 126.01v20.00" stroke="currentColor" fill="none"/>
<use x="381.51" y="126.01" xlink:href="#hl"/>
<use x="381.51" y="126.01" xlink:href="#Hd"/>
<path d="M378.01 126.01v20.00" stroke="currentColor" fill="none"/>
<use x="432.51" y="144.01" xlink:href="#r1"/>
<use x="471.61" y="126.01" xlink:href="#hl"/>
<use x="471.61" y="126.01" xlink:href="#hd"/>
<path d="M468.11 126.01v20.00" stroke="currentColor" fill="none"/>
<use x="494.61" y="129.01" xlink:href="#hd"/>
<path d="M491.11 129.01v20.00" stroke="currentColor" fill="none"/>
<use x="517.51" y="132.01" xlink:href="#hd"/>
<path d="M514.01 132.01v20.00" stroke="currentColor" fill="none"/>
<use x="540.51" y="135.01" xlink:href="#hd"/>
<path d="M537.01 135.01v20.00" stroke="currentColor" fill="none"/>
<path stroke="currentColor" fill="none"
	d="M11.11 284.01v-82.00"/>
<path stroke="currentColor" fill="none"
	d="M184.41 226.01v-24.00"/>
<path stroke="currentColor" fill="none"
	d="M184.41 284.01v-58.00"/>
<path stroke="currentColor" fill="none"
	d="M405.11 226.01v-24.00"/>
<path stroke="currentColor" fill="none"
	d="M405.11 284.01v-58.00"/>
<path stroke="currentColor" fill="none"
	d="M559.21 226.01v-24.00"/>
<path stroke="currentColor" fill="none"
	d="M559.21 284.01v-58.00"/>
<path stroke="currentColor" fill="none"
	d="M11.11 226.01h548.10m-548.10 -6h548.10m-548.10 -6h548.10m-548.10 -6h548.10m-548.10 -6h548.10"/>
<path stroke="currentColor" fill="none"
	d="M11.11 284.01h548.10m-548.10 -6h548.10m-548.10 -6h548.10m-548.10 -6h548.10m-548.10 -6h548.10"/>
<use x="23.11" y="226.01" xlink:href="#tclef"/>
<use x="108.81" y="214.01" xlink:href="#r1"/>
<use x="294.81" y="214.01" xlink:href="#r1"/>
<use x="482.11" y="214.01" xlink:href="#r1"/>
<use x="23.11" y="284.01" xlink:href="#bclef"/>
<use x="49.11" y="266.01" xlink:href="#Hd"/>
<path d="M45.61 266.01v20.00" stroke="currentColor" fill="none"/>
<use x="124.31" y="266.01" xlink:href="#Hd"/>
<path d="M120.81 266.01v20.00" stroke="currentColor" fill="none"/>
<use x="203.21" y="266.01" xlink:href="#hd"/>
<path d="M199.71 266.01v20.00" stroke="currentColor" fill="none"/>
<use x="256.31" y="263.01" xlink:href="#hd"/>
<path d="M252.81 263.01v20.00" stroke="currentColor" fill="none"/>
<use x="309.51" y="260.01" xlink:href="#hd"/>
<path d="M306.01 260.01v20.00" stroke="currentColor" fill="none"/>
<use x="362.61" y="257.01" xlink:href="#hd"/>
<path d="M359.11 257.01v20.00" stroke="currentColor" fill="none"/>
<use x="423.91" y="254.01" xlink:href="#hl"/>
<use x="423.91" y="254.01" xlink:href="#Hd"/>
<path d="M420.41 254.01v20.00" stroke="currentColor" fill="none"/>
<use x="499.11" y="254.01" xlink:href="#hl"/>
<use x="499.11" y="254.01" xlink:href="#Hd"/>
<path d="M495.61 254.01v20.00" stroke="currentColor" fill="none"/>
<path stroke="currentColor" fill="none"
	d="M11.11 412.01v-82.00"/>
<path stroke="currentColor" fill="none"
	d="M101.91 354.01v-24.00"/>
<path stroke="currentColor" fill="none"
	d="M101.91 412.01v-58.00"/>
<path stroke="currentColor" fill="none"
	d="M241.71 354.01v-24.00"/>
<path stroke="currentColor" fill="none"
	d="M241.71 412.01v-58.00"/>
<path stroke="currentColor" fill="none"
	d="M381.51 354.01v-24.00"/>
<path stroke="currentColor" fill="none"
	d="M381.51 412.01v-58.00"/>
<path stroke="currentColor" fill="none"
	d="M479.71 354.01v-24.00"/>
<path stroke="currentColor" fill="none"
	d="M479.71 412.01v-58.00"/>
<path stroke="currentColor" fill="none"
	d="M11.11 354.01h548.10m-548.10 -6h548.10m-548.10 -6h548.10m-548.10 -6h548.10m-548.10 -6h548.10"/>
<path stroke="currentColor" fill="none"
	d="M11.11 412.01h548.10m-548.10 -6h548.10m-548.10 -6h548.10m-548.10 -6h548.10m-548.10 -6h548.10"/>
<use x="23.11" y="354.01" xlink:href="#tclef"/>
<use x="67.51" y="342.01" xlink:href="#r1"/>
<use x="171.81" y="342.01" xlink:href="#r1"/>
<use x="311.61" y="342.01" xlink:href="#r1"/>
<use x="430.61" y="342.01" xlink:href="#r1"/>
<use x="519.51" y="342.01" xlink:href="#r1"/>
<use x="23.11" y="412.01" xlink:href="#bclef"/>
<use x="67.51" y="400.01" xlink:href="#r1"/>
<use x="115.91" y="382.01" xlink:href="#hl"/>
<use x="115.91" y="382.01" xlink:href="#hd"/>
<path d="M112.41 382.01v20.00" stroke="currentColor" fill="none"/>
<use x="149.01" y="385.01" xlink:href="#hd"/>
<path d="M145.51 385.01v20.00" stroke="currentColor" fill="none"/>
<use x="182.11" y="388.01" xlink:href="#hd"/>
<path d="M178.61 388.01v20.00" stroke="currentColor" fill="none"/>
<use x="215.21" y="391.01" xlink:href="#hd"/>
<path d="M211.71 391.01v20.00" stroke="currentColor" fill="none"/>
<use x="255.71" y="394.01" xlink:href="#hd"/>
<path d="M252.21 394.01v20.00" stroke="currentColor" fill="none"/>
<use x="288.81" y="391.01" xlink:href="#hd"/>
<path d="M285.31 391.01v20.00" stroke="currentColor" fill="none"/>
<use x="321.91" y="388.01" xlink:href="#hd"/>
<path d="M318.41 388.01v20.00" stroke="currentColor" fill="none"/>
<use x="355.01" y="385.01" xlink:href="#hd"/>
<path d="M351.51 385.01v20.00" stroke="currentColor" fill="none"/>
<use x="395.51" y="382.01" xlink:href="#hl"/>
<use x="395.51" y="382.01" xlink:href="#Hd"/>
<path d="M392.01 382.01v20.00" stroke="currentColor" fill="none"/>
<use x="442.31" y="382.01" xlink:href="#hl"/>
<use x="442.31" y="382.01" xlink:href="#Hd"/>
<path d="M438.81 382.01v20.00" stroke="currentColor" fill="none"/>
<use x="519.51" y="400.01" xlink:href="#r1"/>
</g>
</svg>
